<mxfile host="app.diagrams.net" agent="Mozilla/5.0 (Windows NT 10.0; Win64; x64) AppleWebKit/537.36 (KHTML, like Gecko) Chrome/132.0.0.0 Safari/537.36" version="27.1.4">
  <diagram id="Gs0rjqCEslWrO4-p2jYy" name="第 2 页">
    <mxGraphModel dx="1966" dy="472" grid="1" gridSize="10" guides="1" tooltips="1" connect="1" arrows="1" fold="1" page="1" pageScale="1" pageWidth="827" pageHeight="1169" math="0" shadow="0">
      <root>
        <mxCell id="0" />
        <mxCell id="1" parent="0" />
        <mxCell id="ohR55EIoIwS_sdCDgcCh-1" value="餐廳體驗1 &amp;amp; 2" style="swimlane;childLayout=stackLayout;resizeParent=1;resizeParentMax=0;startSize=20;html=1;fillColor=#b0e3e6;strokeColor=#0e8088;" parent="1" vertex="1">
          <mxGeometry x="10" y="60" width="2080" height="940" as="geometry" />
        </mxCell>
        <mxCell id="ohR55EIoIwS_sdCDgcCh-2" value="產生需求" style="swimlane;startSize=20;html=1;" parent="ohR55EIoIwS_sdCDgcCh-1" vertex="1">
          <mxGeometry y="20" width="200" height="920" as="geometry">
            <mxRectangle y="20" width="40" height="460" as="alternateBounds" />
          </mxGeometry>
        </mxCell>
        <mxCell id="ohR55EIoIwS_sdCDgcCh-14" value="三個月後的&lt;div&gt;生日大餐&lt;/div&gt;" style="strokeWidth=2;html=1;shape=mxgraph.flowchart.start_1;whiteSpace=wrap;" parent="ohR55EIoIwS_sdCDgcCh-2" vertex="1">
          <mxGeometry x="50" y="40" width="100" height="50" as="geometry" />
        </mxCell>
        <mxCell id="ohR55EIoIwS_sdCDgcCh-15" value="今天去基隆吃海鮮" style="strokeWidth=2;html=1;shape=mxgraph.flowchart.start_1;whiteSpace=wrap;" parent="ohR55EIoIwS_sdCDgcCh-2" vertex="1">
          <mxGeometry x="50.000000000000455" y="140" width="100" height="50" as="geometry" />
        </mxCell>
        <mxCell id="ohR55EIoIwS_sdCDgcCh-3" value="確認目標餐廳" style="swimlane;startSize=20;html=1;" parent="ohR55EIoIwS_sdCDgcCh-1" vertex="1">
          <mxGeometry x="200" y="20" width="200" height="920" as="geometry" />
        </mxCell>
        <mxCell id="ohR55EIoIwS_sdCDgcCh-20" style="edgeStyle=orthogonalEdgeStyle;rounded=0;orthogonalLoop=1;jettySize=auto;html=1;exitX=0.5;exitY=1;exitDx=0;exitDy=0;entryX=0.5;entryY=0;entryDx=0;entryDy=0;" parent="ohR55EIoIwS_sdCDgcCh-3" source="ohR55EIoIwS_sdCDgcCh-17" target="ohR55EIoIwS_sdCDgcCh-18" edge="1">
          <mxGeometry relative="1" as="geometry" />
        </mxCell>
        <mxCell id="ohR55EIoIwS_sdCDgcCh-17" value="確認條件&amp;amp;排序&lt;div&gt;&lt;font style=&quot;font-size: 9px;&quot;&gt;預算/人數/時間/類型&lt;/font&gt;&lt;/div&gt;" style="rounded=1;whiteSpace=wrap;html=1;absoluteArcSize=1;arcSize=14;strokeWidth=2;" parent="ohR55EIoIwS_sdCDgcCh-3" vertex="1">
          <mxGeometry x="50" y="40" width="100" height="50" as="geometry" />
        </mxCell>
        <mxCell id="ohR55EIoIwS_sdCDgcCh-34" style="edgeStyle=orthogonalEdgeStyle;rounded=0;orthogonalLoop=1;jettySize=auto;html=1;exitX=0.5;exitY=1;exitDx=0;exitDy=0;" parent="ohR55EIoIwS_sdCDgcCh-3" source="ohR55EIoIwS_sdCDgcCh-18" target="ohR55EIoIwS_sdCDgcCh-33" edge="1">
          <mxGeometry relative="1" as="geometry" />
        </mxCell>
        <mxCell id="ohR55EIoIwS_sdCDgcCh-18" value="找目標餐廳排序&lt;div&gt;最前的確認&lt;/div&gt;" style="rounded=1;whiteSpace=wrap;html=1;absoluteArcSize=1;arcSize=14;strokeWidth=2;" parent="ohR55EIoIwS_sdCDgcCh-3" vertex="1">
          <mxGeometry x="50" y="130" width="100" height="50" as="geometry" />
        </mxCell>
        <mxCell id="ohR55EIoIwS_sdCDgcCh-33" value="能否線上訂位" style="strokeWidth=2;html=1;shape=mxgraph.flowchart.decision;whiteSpace=wrap;" parent="ohR55EIoIwS_sdCDgcCh-3" vertex="1">
          <mxGeometry x="50" y="220" width="100" height="50" as="geometry" />
        </mxCell>
        <mxCell id="ohR55EIoIwS_sdCDgcCh-12" value="定位/候位" style="swimlane;startSize=20;html=1;" parent="ohR55EIoIwS_sdCDgcCh-1" vertex="1">
          <mxGeometry x="400" y="20" width="480" height="920" as="geometry" />
        </mxCell>
        <mxCell id="ohR55EIoIwS_sdCDgcCh-43" style="edgeStyle=orthogonalEdgeStyle;rounded=0;orthogonalLoop=1;jettySize=auto;html=1;entryX=0.5;entryY=0;entryDx=0;entryDy=0;" parent="ohR55EIoIwS_sdCDgcCh-12" source="ohR55EIoIwS_sdCDgcCh-24" target="ohR55EIoIwS_sdCDgcCh-42" edge="1">
          <mxGeometry relative="1" as="geometry" />
        </mxCell>
        <mxCell id="ohR55EIoIwS_sdCDgcCh-24" value="打電話" style="rounded=1;whiteSpace=wrap;html=1;absoluteArcSize=1;arcSize=14;strokeWidth=2;" parent="ohR55EIoIwS_sdCDgcCh-12" vertex="1">
          <mxGeometry x="30" y="40" width="100" height="50" as="geometry" />
        </mxCell>
        <mxCell id="ohR55EIoIwS_sdCDgcCh-58" style="edgeStyle=orthogonalEdgeStyle;rounded=0;orthogonalLoop=1;jettySize=auto;html=1;exitX=0.5;exitY=1;exitDx=0;exitDy=0;entryX=0.5;entryY=0;entryDx=0;entryDy=0;" parent="ohR55EIoIwS_sdCDgcCh-12" source="ohR55EIoIwS_sdCDgcCh-26" target="ohR55EIoIwS_sdCDgcCh-52" edge="1">
          <mxGeometry relative="1" as="geometry" />
        </mxCell>
        <mxCell id="ohR55EIoIwS_sdCDgcCh-26" value="進線上訂位系統" style="rounded=1;whiteSpace=wrap;html=1;absoluteArcSize=1;arcSize=14;strokeWidth=2;" parent="ohR55EIoIwS_sdCDgcCh-12" vertex="1">
          <mxGeometry x="200" y="40" width="100" height="50" as="geometry" />
        </mxCell>
        <mxCell id="ohR55EIoIwS_sdCDgcCh-42" value="告知人數/時間" style="rounded=1;whiteSpace=wrap;html=1;absoluteArcSize=1;arcSize=14;strokeWidth=2;" parent="ohR55EIoIwS_sdCDgcCh-12" vertex="1">
          <mxGeometry x="30" y="130" width="100" height="50" as="geometry" />
        </mxCell>
        <mxCell id="ohR55EIoIwS_sdCDgcCh-48" value="店家判斷&lt;div&gt;是否可預約&lt;/div&gt;" style="strokeWidth=2;html=1;shape=mxgraph.flowchart.decision;whiteSpace=wrap;" parent="ohR55EIoIwS_sdCDgcCh-12" vertex="1">
          <mxGeometry x="30" y="220" width="100" height="50" as="geometry" />
        </mxCell>
        <mxCell id="ohR55EIoIwS_sdCDgcCh-50" style="edgeStyle=orthogonalEdgeStyle;rounded=0;orthogonalLoop=1;jettySize=auto;html=1;exitX=0.5;exitY=1;exitDx=0;exitDy=0;entryX=0.5;entryY=0;entryDx=0;entryDy=0;entryPerimeter=0;jumpStyle=none;" parent="ohR55EIoIwS_sdCDgcCh-12" source="ohR55EIoIwS_sdCDgcCh-42" target="ohR55EIoIwS_sdCDgcCh-48" edge="1">
          <mxGeometry relative="1" as="geometry" />
        </mxCell>
        <mxCell id="ohR55EIoIwS_sdCDgcCh-59" style="edgeStyle=orthogonalEdgeStyle;rounded=0;orthogonalLoop=1;jettySize=auto;html=1;exitX=0.5;exitY=1;exitDx=0;exitDy=0;" parent="ohR55EIoIwS_sdCDgcCh-12" source="ohR55EIoIwS_sdCDgcCh-52" target="ohR55EIoIwS_sdCDgcCh-54" edge="1">
          <mxGeometry relative="1" as="geometry" />
        </mxCell>
        <mxCell id="ohR55EIoIwS_sdCDgcCh-52" value="輸入人數/時間" style="rounded=1;whiteSpace=wrap;html=1;absoluteArcSize=1;arcSize=14;strokeWidth=2;" parent="ohR55EIoIwS_sdCDgcCh-12" vertex="1">
          <mxGeometry x="200" y="130" width="100" height="50" as="geometry" />
        </mxCell>
        <mxCell id="ohR55EIoIwS_sdCDgcCh-64" style="edgeStyle=orthogonalEdgeStyle;rounded=0;orthogonalLoop=1;jettySize=auto;html=1;" parent="ohR55EIoIwS_sdCDgcCh-12" source="ohR55EIoIwS_sdCDgcCh-54" target="ohR55EIoIwS_sdCDgcCh-62" edge="1">
          <mxGeometry relative="1" as="geometry" />
        </mxCell>
        <mxCell id="ohR55EIoIwS_sdCDgcCh-65" value="不可以" style="edgeLabel;html=1;align=center;verticalAlign=middle;resizable=0;points=[];" parent="ohR55EIoIwS_sdCDgcCh-64" vertex="1" connectable="0">
          <mxGeometry x="-0.016" y="2" relative="1" as="geometry">
            <mxPoint y="2" as="offset" />
          </mxGeometry>
        </mxCell>
        <mxCell id="ohR55EIoIwS_sdCDgcCh-54" value="結果顯示&lt;div&gt;是否可預約&lt;/div&gt;" style="strokeWidth=2;html=1;shape=mxgraph.flowchart.decision;whiteSpace=wrap;" parent="ohR55EIoIwS_sdCDgcCh-12" vertex="1">
          <mxGeometry x="200" y="220" width="100" height="50" as="geometry" />
        </mxCell>
        <mxCell id="ohR55EIoIwS_sdCDgcCh-62" value="輸入新時間" style="rounded=1;whiteSpace=wrap;html=1;absoluteArcSize=1;arcSize=14;strokeWidth=2;" parent="ohR55EIoIwS_sdCDgcCh-12" vertex="1">
          <mxGeometry x="350" y="220" width="100" height="50" as="geometry" />
        </mxCell>
        <mxCell id="ohR55EIoIwS_sdCDgcCh-66" value="結果顯示&lt;div&gt;是否可預約&lt;/div&gt;" style="strokeWidth=2;html=1;shape=mxgraph.flowchart.decision;whiteSpace=wrap;" parent="ohR55EIoIwS_sdCDgcCh-12" vertex="1">
          <mxGeometry x="350" y="310" width="100" height="50" as="geometry" />
        </mxCell>
        <mxCell id="ohR55EIoIwS_sdCDgcCh-67" style="edgeStyle=orthogonalEdgeStyle;rounded=0;orthogonalLoop=1;jettySize=auto;html=1;entryX=0.5;entryY=0;entryDx=0;entryDy=0;entryPerimeter=0;" parent="ohR55EIoIwS_sdCDgcCh-12" source="ohR55EIoIwS_sdCDgcCh-62" target="ohR55EIoIwS_sdCDgcCh-66" edge="1">
          <mxGeometry relative="1" as="geometry" />
        </mxCell>
        <mxCell id="ohR55EIoIwS_sdCDgcCh-11" value="到餐廳" style="swimlane;startSize=20;html=1;" parent="ohR55EIoIwS_sdCDgcCh-1" vertex="1">
          <mxGeometry x="880" y="20" width="200" height="920" as="geometry" />
        </mxCell>
        <mxCell id="ohR55EIoIwS_sdCDgcCh-75" style="edgeStyle=orthogonalEdgeStyle;rounded=0;orthogonalLoop=1;jettySize=auto;html=1;" parent="ohR55EIoIwS_sdCDgcCh-11" source="ohR55EIoIwS_sdCDgcCh-70" target="ohR55EIoIwS_sdCDgcCh-72" edge="1">
          <mxGeometry relative="1" as="geometry" />
        </mxCell>
        <mxCell id="ohR55EIoIwS_sdCDgcCh-70" value="等約定時間到&lt;div&gt;前往餐廳&lt;/div&gt;" style="rounded=1;whiteSpace=wrap;html=1;absoluteArcSize=1;arcSize=14;strokeWidth=2;" parent="ohR55EIoIwS_sdCDgcCh-11" vertex="1">
          <mxGeometry x="50" y="40" width="100" height="50" as="geometry" />
        </mxCell>
        <mxCell id="ohR55EIoIwS_sdCDgcCh-72" value="抵達餐廳" style="rounded=1;whiteSpace=wrap;html=1;absoluteArcSize=1;arcSize=14;strokeWidth=2;" parent="ohR55EIoIwS_sdCDgcCh-11" vertex="1">
          <mxGeometry x="50" y="130" width="100" height="50" as="geometry" />
        </mxCell>
        <mxCell id="ohR55EIoIwS_sdCDgcCh-10" value="點餐" style="swimlane;startSize=20;html=1;" parent="ohR55EIoIwS_sdCDgcCh-1" vertex="1">
          <mxGeometry x="1080" y="20" width="360" height="920" as="geometry" />
        </mxCell>
        <mxCell id="ohR55EIoIwS_sdCDgcCh-87" style="edgeStyle=orthogonalEdgeStyle;rounded=0;orthogonalLoop=1;jettySize=auto;html=1;entryX=0.5;entryY=0;entryDx=0;entryDy=0;" parent="ohR55EIoIwS_sdCDgcCh-10" source="ohR55EIoIwS_sdCDgcCh-79" target="ohR55EIoIwS_sdCDgcCh-85" edge="1">
          <mxGeometry relative="1" as="geometry" />
        </mxCell>
        <mxCell id="ohR55EIoIwS_sdCDgcCh-79" value="確認定位資訊" style="rounded=1;whiteSpace=wrap;html=1;absoluteArcSize=1;arcSize=14;strokeWidth=2;" parent="ohR55EIoIwS_sdCDgcCh-10" vertex="1">
          <mxGeometry x="65" y="40" width="100" height="50" as="geometry" />
        </mxCell>
        <mxCell id="ohR55EIoIwS_sdCDgcCh-88" style="edgeStyle=orthogonalEdgeStyle;rounded=0;orthogonalLoop=1;jettySize=auto;html=1;entryX=0.5;entryY=0;entryDx=0;entryDy=0;" parent="ohR55EIoIwS_sdCDgcCh-10" source="ohR55EIoIwS_sdCDgcCh-85" target="ohR55EIoIwS_sdCDgcCh-86" edge="1">
          <mxGeometry relative="1" as="geometry" />
        </mxCell>
        <mxCell id="ohR55EIoIwS_sdCDgcCh-85" value="入座" style="rounded=1;whiteSpace=wrap;html=1;absoluteArcSize=1;arcSize=14;strokeWidth=2;" parent="ohR55EIoIwS_sdCDgcCh-10" vertex="1">
          <mxGeometry x="65" y="130" width="100" height="50" as="geometry" />
        </mxCell>
        <mxCell id="ohR55EIoIwS_sdCDgcCh-86" value="店家提供菜單" style="rounded=1;whiteSpace=wrap;html=1;absoluteArcSize=1;arcSize=14;strokeWidth=2;" parent="ohR55EIoIwS_sdCDgcCh-10" vertex="1">
          <mxGeometry x="65" y="220" width="100" height="50" as="geometry" />
        </mxCell>
        <mxCell id="ohR55EIoIwS_sdCDgcCh-91" style="edgeStyle=orthogonalEdgeStyle;rounded=0;orthogonalLoop=1;jettySize=auto;html=1;entryX=0;entryY=0.5;entryDx=0;entryDy=0;" parent="ohR55EIoIwS_sdCDgcCh-10" source="ohR55EIoIwS_sdCDgcCh-89" target="ohR55EIoIwS_sdCDgcCh-93" edge="1">
          <mxGeometry relative="1" as="geometry">
            <mxPoint x="205" y="335" as="targetPoint" />
          </mxGeometry>
        </mxCell>
        <mxCell id="ohR55EIoIwS_sdCDgcCh-94" value="有" style="edgeLabel;html=1;align=center;verticalAlign=middle;resizable=0;points=[];" parent="ohR55EIoIwS_sdCDgcCh-91" vertex="1" connectable="0">
          <mxGeometry x="-0.36" y="2" relative="1" as="geometry">
            <mxPoint as="offset" />
          </mxGeometry>
        </mxCell>
        <mxCell id="ohR55EIoIwS_sdCDgcCh-92" style="edgeStyle=orthogonalEdgeStyle;rounded=0;orthogonalLoop=1;jettySize=auto;html=1;" parent="ohR55EIoIwS_sdCDgcCh-10" source="ohR55EIoIwS_sdCDgcCh-89" edge="1">
          <mxGeometry relative="1" as="geometry">
            <mxPoint x="115" y="400" as="targetPoint" />
          </mxGeometry>
        </mxCell>
        <mxCell id="ohR55EIoIwS_sdCDgcCh-95" value="沒有" style="edgeLabel;html=1;align=center;verticalAlign=middle;resizable=0;points=[];" parent="ohR55EIoIwS_sdCDgcCh-92" vertex="1" connectable="0">
          <mxGeometry x="-0.2396" y="-2" relative="1" as="geometry">
            <mxPoint as="offset" />
          </mxGeometry>
        </mxCell>
        <mxCell id="ohR55EIoIwS_sdCDgcCh-89" value="店家有無&lt;div&gt;評論招待活動&lt;/div&gt;" style="strokeWidth=2;html=1;shape=mxgraph.flowchart.decision;whiteSpace=wrap;" parent="ohR55EIoIwS_sdCDgcCh-10" vertex="1">
          <mxGeometry x="65" y="310" width="100" height="50" as="geometry" />
        </mxCell>
        <mxCell id="ohR55EIoIwS_sdCDgcCh-90" style="edgeStyle=orthogonalEdgeStyle;rounded=0;orthogonalLoop=1;jettySize=auto;html=1;entryX=0.5;entryY=0;entryDx=0;entryDy=0;entryPerimeter=0;" parent="ohR55EIoIwS_sdCDgcCh-10" source="ohR55EIoIwS_sdCDgcCh-86" target="ohR55EIoIwS_sdCDgcCh-89" edge="1">
          <mxGeometry relative="1" as="geometry" />
        </mxCell>
        <mxCell id="ohR55EIoIwS_sdCDgcCh-93" value="店家說明/提供&lt;div&gt;活動資訊&lt;/div&gt;" style="rounded=1;whiteSpace=wrap;html=1;absoluteArcSize=1;arcSize=14;strokeWidth=2;" parent="ohR55EIoIwS_sdCDgcCh-10" vertex="1">
          <mxGeometry x="215" y="310" width="100" height="50" as="geometry" />
        </mxCell>
        <mxCell id="ohR55EIoIwS_sdCDgcCh-113" style="edgeStyle=orthogonalEdgeStyle;rounded=0;orthogonalLoop=1;jettySize=auto;html=1;entryX=0.5;entryY=0;entryDx=0;entryDy=0;" parent="ohR55EIoIwS_sdCDgcCh-10" source="ohR55EIoIwS_sdCDgcCh-96" target="ohR55EIoIwS_sdCDgcCh-110" edge="1">
          <mxGeometry relative="1" as="geometry" />
        </mxCell>
        <mxCell id="ohR55EIoIwS_sdCDgcCh-96" value="客人看菜單" style="rounded=1;whiteSpace=wrap;html=1;absoluteArcSize=1;arcSize=14;strokeWidth=2;" parent="ohR55EIoIwS_sdCDgcCh-10" vertex="1">
          <mxGeometry x="65" y="400" width="100" height="50" as="geometry" />
        </mxCell>
        <mxCell id="ohR55EIoIwS_sdCDgcCh-99" style="edgeStyle=orthogonalEdgeStyle;rounded=0;orthogonalLoop=1;jettySize=auto;html=1;entryX=1;entryY=0.5;entryDx=0;entryDy=0;" parent="ohR55EIoIwS_sdCDgcCh-10" source="ohR55EIoIwS_sdCDgcCh-97" target="ohR55EIoIwS_sdCDgcCh-96" edge="1">
          <mxGeometry relative="1" as="geometry" />
        </mxCell>
        <mxCell id="ohR55EIoIwS_sdCDgcCh-100" value="不要" style="edgeLabel;html=1;align=center;verticalAlign=middle;resizable=0;points=[];" parent="ohR55EIoIwS_sdCDgcCh-99" vertex="1" connectable="0">
          <mxGeometry x="-0.16" y="-2" relative="1" as="geometry">
            <mxPoint as="offset" />
          </mxGeometry>
        </mxCell>
        <mxCell id="ohR55EIoIwS_sdCDgcCh-101" style="edgeStyle=orthogonalEdgeStyle;rounded=0;orthogonalLoop=1;jettySize=auto;html=1;" parent="ohR55EIoIwS_sdCDgcCh-10" source="ohR55EIoIwS_sdCDgcCh-97" edge="1">
          <mxGeometry relative="1" as="geometry">
            <mxPoint x="265" y="490" as="targetPoint" />
          </mxGeometry>
        </mxCell>
        <mxCell id="ohR55EIoIwS_sdCDgcCh-107" value="要" style="edgeLabel;html=1;align=center;verticalAlign=middle;resizable=0;points=[];" parent="ohR55EIoIwS_sdCDgcCh-101" vertex="1" connectable="0">
          <mxGeometry x="-0.2212" y="1" relative="1" as="geometry">
            <mxPoint as="offset" />
          </mxGeometry>
        </mxCell>
        <mxCell id="ohR55EIoIwS_sdCDgcCh-97" value="客人判斷&lt;div&gt;要不要參加&lt;/div&gt;" style="strokeWidth=2;html=1;shape=mxgraph.flowchart.decision;whiteSpace=wrap;" parent="ohR55EIoIwS_sdCDgcCh-10" vertex="1">
          <mxGeometry x="215" y="400" width="100" height="50" as="geometry" />
        </mxCell>
        <mxCell id="ohR55EIoIwS_sdCDgcCh-98" style="edgeStyle=orthogonalEdgeStyle;rounded=0;orthogonalLoop=1;jettySize=auto;html=1;entryX=0.5;entryY=0;entryDx=0;entryDy=0;entryPerimeter=0;" parent="ohR55EIoIwS_sdCDgcCh-10" source="ohR55EIoIwS_sdCDgcCh-93" target="ohR55EIoIwS_sdCDgcCh-97" edge="1">
          <mxGeometry relative="1" as="geometry" />
        </mxCell>
        <mxCell id="ohR55EIoIwS_sdCDgcCh-128" style="edgeStyle=orthogonalEdgeStyle;rounded=0;orthogonalLoop=1;jettySize=auto;html=1;entryX=0.5;entryY=0;entryDx=0;entryDy=0;" parent="ohR55EIoIwS_sdCDgcCh-10" source="ohR55EIoIwS_sdCDgcCh-102" target="ohR55EIoIwS_sdCDgcCh-124" edge="1">
          <mxGeometry relative="1" as="geometry" />
        </mxCell>
        <mxCell id="ohR55EIoIwS_sdCDgcCh-102" value="客人完成評論&lt;div&gt;(店家指定平台)&lt;/div&gt;" style="rounded=1;whiteSpace=wrap;html=1;absoluteArcSize=1;arcSize=14;strokeWidth=2;fillColor=#ffe6cc;strokeColor=#d79b00;" parent="ohR55EIoIwS_sdCDgcCh-10" vertex="1">
          <mxGeometry x="215" y="490" width="100" height="50" as="geometry" />
        </mxCell>
        <mxCell id="ohR55EIoIwS_sdCDgcCh-110" value="客人點菜" style="rounded=1;whiteSpace=wrap;html=1;absoluteArcSize=1;arcSize=14;strokeWidth=2;" parent="ohR55EIoIwS_sdCDgcCh-10" vertex="1">
          <mxGeometry x="65" y="490" width="100" height="50" as="geometry" />
        </mxCell>
        <mxCell id="ohR55EIoIwS_sdCDgcCh-123" style="edgeStyle=orthogonalEdgeStyle;rounded=0;orthogonalLoop=1;jettySize=auto;html=1;entryX=0.5;entryY=0;entryDx=0;entryDy=0;" parent="ohR55EIoIwS_sdCDgcCh-10" source="ohR55EIoIwS_sdCDgcCh-124" target="ohR55EIoIwS_sdCDgcCh-126" edge="1">
          <mxGeometry relative="1" as="geometry" />
        </mxCell>
        <mxCell id="ohR55EIoIwS_sdCDgcCh-124" value="客人看菜單" style="rounded=1;whiteSpace=wrap;html=1;absoluteArcSize=1;arcSize=14;strokeWidth=2;" parent="ohR55EIoIwS_sdCDgcCh-10" vertex="1">
          <mxGeometry x="215" y="580" width="100" height="50" as="geometry" />
        </mxCell>
        <mxCell id="ohR55EIoIwS_sdCDgcCh-125" style="edgeStyle=orthogonalEdgeStyle;rounded=0;orthogonalLoop=1;jettySize=auto;html=1;entryX=0.5;entryY=0;entryDx=0;entryDy=0;" parent="ohR55EIoIwS_sdCDgcCh-10" source="ohR55EIoIwS_sdCDgcCh-126" target="ohR55EIoIwS_sdCDgcCh-127" edge="1">
          <mxGeometry relative="1" as="geometry" />
        </mxCell>
        <mxCell id="ohR55EIoIwS_sdCDgcCh-126" value="客人點菜" style="rounded=1;whiteSpace=wrap;html=1;absoluteArcSize=1;arcSize=14;strokeWidth=2;" parent="ohR55EIoIwS_sdCDgcCh-10" vertex="1">
          <mxGeometry x="215" y="670" width="100" height="50" as="geometry" />
        </mxCell>
        <mxCell id="ohR55EIoIwS_sdCDgcCh-127" value="店家確認評論" style="rounded=1;whiteSpace=wrap;html=1;absoluteArcSize=1;arcSize=14;strokeWidth=2;" parent="ohR55EIoIwS_sdCDgcCh-10" vertex="1">
          <mxGeometry x="215" y="760" width="100" height="50" as="geometry" />
        </mxCell>
        <mxCell id="ohR55EIoIwS_sdCDgcCh-9" value="用餐" style="swimlane;startSize=20;html=1;" parent="ohR55EIoIwS_sdCDgcCh-1" vertex="1">
          <mxGeometry x="1440" y="20" width="320" height="920" as="geometry" />
        </mxCell>
        <mxCell id="ohR55EIoIwS_sdCDgcCh-120" style="edgeStyle=orthogonalEdgeStyle;rounded=0;orthogonalLoop=1;jettySize=auto;html=1;entryX=0.5;entryY=0;entryDx=0;entryDy=0;" parent="ohR55EIoIwS_sdCDgcCh-9" source="ohR55EIoIwS_sdCDgcCh-83" target="ohR55EIoIwS_sdCDgcCh-115" edge="1">
          <mxGeometry relative="1" as="geometry" />
        </mxCell>
        <mxCell id="ohR55EIoIwS_sdCDgcCh-83" value="上菜" style="rounded=1;whiteSpace=wrap;html=1;absoluteArcSize=1;arcSize=14;strokeWidth=2;" parent="ohR55EIoIwS_sdCDgcCh-9" vertex="1">
          <mxGeometry x="50" y="40" width="100" height="50" as="geometry" />
        </mxCell>
        <mxCell id="ohR55EIoIwS_sdCDgcCh-121" style="edgeStyle=orthogonalEdgeStyle;rounded=0;orthogonalLoop=1;jettySize=auto;html=1;entryX=0.5;entryY=0;entryDx=0;entryDy=0;" parent="ohR55EIoIwS_sdCDgcCh-9" source="ohR55EIoIwS_sdCDgcCh-115" target="ohR55EIoIwS_sdCDgcCh-116" edge="1">
          <mxGeometry relative="1" as="geometry" />
        </mxCell>
        <mxCell id="ohR55EIoIwS_sdCDgcCh-115" value="用餐" style="rounded=1;whiteSpace=wrap;html=1;absoluteArcSize=1;arcSize=14;strokeWidth=2;" parent="ohR55EIoIwS_sdCDgcCh-9" vertex="1">
          <mxGeometry x="50" y="130" width="100" height="50" as="geometry" />
        </mxCell>
        <mxCell id="ohR55EIoIwS_sdCDgcCh-122" style="edgeStyle=orthogonalEdgeStyle;rounded=0;orthogonalLoop=1;jettySize=auto;html=1;entryX=0.5;entryY=0;entryDx=0;entryDy=0;" parent="ohR55EIoIwS_sdCDgcCh-9" source="ohR55EIoIwS_sdCDgcCh-116" target="ohR55EIoIwS_sdCDgcCh-117" edge="1">
          <mxGeometry relative="1" as="geometry" />
        </mxCell>
        <mxCell id="ohR55EIoIwS_sdCDgcCh-116" value="吃完" style="rounded=1;whiteSpace=wrap;html=1;absoluteArcSize=1;arcSize=14;strokeWidth=2;" parent="ohR55EIoIwS_sdCDgcCh-9" vertex="1">
          <mxGeometry x="50" y="220" width="100" height="50" as="geometry" />
        </mxCell>
        <mxCell id="ohR55EIoIwS_sdCDgcCh-117" value="結帳" style="rounded=1;whiteSpace=wrap;html=1;absoluteArcSize=1;arcSize=14;strokeWidth=2;" parent="ohR55EIoIwS_sdCDgcCh-9" vertex="1">
          <mxGeometry x="50" y="310" width="100" height="50" as="geometry" />
        </mxCell>
        <mxCell id="ohR55EIoIwS_sdCDgcCh-132" style="edgeStyle=orthogonalEdgeStyle;rounded=0;orthogonalLoop=1;jettySize=auto;html=1;entryX=0;entryY=0.5;entryDx=0;entryDy=0;" parent="ohR55EIoIwS_sdCDgcCh-9" source="ohR55EIoIwS_sdCDgcCh-118" target="ohR55EIoIwS_sdCDgcCh-131" edge="1">
          <mxGeometry relative="1" as="geometry" />
        </mxCell>
        <mxCell id="ohR55EIoIwS_sdCDgcCh-134" value="有" style="edgeLabel;html=1;align=center;verticalAlign=middle;resizable=0;points=[];" parent="ohR55EIoIwS_sdCDgcCh-132" vertex="1" connectable="0">
          <mxGeometry x="-0.3871" relative="1" as="geometry">
            <mxPoint as="offset" />
          </mxGeometry>
        </mxCell>
        <mxCell id="ohR55EIoIwS_sdCDgcCh-152" style="edgeStyle=orthogonalEdgeStyle;rounded=0;orthogonalLoop=1;jettySize=auto;html=1;entryX=0.5;entryY=0;entryDx=0;entryDy=0;" parent="ohR55EIoIwS_sdCDgcCh-9" source="ohR55EIoIwS_sdCDgcCh-118" target="ohR55EIoIwS_sdCDgcCh-150" edge="1">
          <mxGeometry relative="1" as="geometry" />
        </mxCell>
        <mxCell id="ohR55EIoIwS_sdCDgcCh-118" value="店家有無&lt;div&gt;評論折扣活動&lt;/div&gt;" style="strokeWidth=2;html=1;shape=mxgraph.flowchart.decision;whiteSpace=wrap;" parent="ohR55EIoIwS_sdCDgcCh-9" vertex="1">
          <mxGeometry x="50" y="399.5" width="100" height="50" as="geometry" />
        </mxCell>
        <mxCell id="ohR55EIoIwS_sdCDgcCh-131" value="店家說明/提供&lt;div&gt;活動資訊&lt;/div&gt;" style="rounded=1;whiteSpace=wrap;html=1;absoluteArcSize=1;arcSize=14;strokeWidth=2;" parent="ohR55EIoIwS_sdCDgcCh-9" vertex="1">
          <mxGeometry x="190" y="399.5" width="100" height="50" as="geometry" />
        </mxCell>
        <mxCell id="ohR55EIoIwS_sdCDgcCh-138" style="edgeStyle=orthogonalEdgeStyle;rounded=0;orthogonalLoop=1;jettySize=auto;html=1;entryX=0.5;entryY=0;entryDx=0;entryDy=0;" parent="ohR55EIoIwS_sdCDgcCh-9" source="ohR55EIoIwS_sdCDgcCh-135" target="ohR55EIoIwS_sdCDgcCh-136" edge="1">
          <mxGeometry relative="1" as="geometry" />
        </mxCell>
        <mxCell id="ohR55EIoIwS_sdCDgcCh-142" value="要" style="edgeLabel;html=1;align=center;verticalAlign=middle;resizable=0;points=[];" parent="ohR55EIoIwS_sdCDgcCh-138" vertex="1" connectable="0">
          <mxGeometry x="-0.225" y="-1" relative="1" as="geometry">
            <mxPoint as="offset" />
          </mxGeometry>
        </mxCell>
        <mxCell id="ohR55EIoIwS_sdCDgcCh-153" style="edgeStyle=orthogonalEdgeStyle;rounded=0;orthogonalLoop=1;jettySize=auto;html=1;entryX=1;entryY=0.5;entryDx=0;entryDy=0;" parent="ohR55EIoIwS_sdCDgcCh-9" source="ohR55EIoIwS_sdCDgcCh-135" target="ohR55EIoIwS_sdCDgcCh-150" edge="1">
          <mxGeometry relative="1" as="geometry" />
        </mxCell>
        <mxCell id="ohR55EIoIwS_sdCDgcCh-154" value="不要" style="edgeLabel;html=1;align=center;verticalAlign=middle;resizable=0;points=[];" parent="ohR55EIoIwS_sdCDgcCh-153" vertex="1" connectable="0">
          <mxGeometry x="-0.106" relative="1" as="geometry">
            <mxPoint as="offset" />
          </mxGeometry>
        </mxCell>
        <mxCell id="ohR55EIoIwS_sdCDgcCh-135" value="客人判斷&lt;div&gt;要不要參加&lt;/div&gt;" style="strokeWidth=2;html=1;shape=mxgraph.flowchart.decision;whiteSpace=wrap;" parent="ohR55EIoIwS_sdCDgcCh-9" vertex="1">
          <mxGeometry x="190" y="489.5" width="100" height="50" as="geometry" />
        </mxCell>
        <mxCell id="ohR55EIoIwS_sdCDgcCh-144" style="edgeStyle=orthogonalEdgeStyle;rounded=0;orthogonalLoop=1;jettySize=auto;html=1;entryX=0.5;entryY=0;entryDx=0;entryDy=0;" parent="ohR55EIoIwS_sdCDgcCh-9" source="ohR55EIoIwS_sdCDgcCh-136" target="ohR55EIoIwS_sdCDgcCh-143" edge="1">
          <mxGeometry relative="1" as="geometry" />
        </mxCell>
        <mxCell id="ohR55EIoIwS_sdCDgcCh-136" value="客人完成評論&lt;div&gt;(店家指定平台)&lt;/div&gt;" style="rounded=1;whiteSpace=wrap;html=1;absoluteArcSize=1;arcSize=14;strokeWidth=2;fillColor=#ffe6cc;strokeColor=#d79b00;" parent="ohR55EIoIwS_sdCDgcCh-9" vertex="1">
          <mxGeometry x="190" y="579.5" width="100" height="50" as="geometry" />
        </mxCell>
        <mxCell id="ohR55EIoIwS_sdCDgcCh-137" style="edgeStyle=orthogonalEdgeStyle;rounded=0;orthogonalLoop=1;jettySize=auto;html=1;entryX=0.5;entryY=0;entryDx=0;entryDy=0;entryPerimeter=0;" parent="ohR55EIoIwS_sdCDgcCh-9" source="ohR55EIoIwS_sdCDgcCh-131" target="ohR55EIoIwS_sdCDgcCh-135" edge="1">
          <mxGeometry relative="1" as="geometry" />
        </mxCell>
        <mxCell id="ohR55EIoIwS_sdCDgcCh-141" style="edgeStyle=orthogonalEdgeStyle;rounded=0;orthogonalLoop=1;jettySize=auto;html=1;entryX=0.5;entryY=0;entryDx=0;entryDy=0;entryPerimeter=0;" parent="ohR55EIoIwS_sdCDgcCh-9" source="ohR55EIoIwS_sdCDgcCh-117" target="ohR55EIoIwS_sdCDgcCh-118" edge="1">
          <mxGeometry relative="1" as="geometry" />
        </mxCell>
        <mxCell id="ohR55EIoIwS_sdCDgcCh-146" style="edgeStyle=orthogonalEdgeStyle;rounded=0;orthogonalLoop=1;jettySize=auto;html=1;entryX=0.5;entryY=0;entryDx=0;entryDy=0;" parent="ohR55EIoIwS_sdCDgcCh-9" source="ohR55EIoIwS_sdCDgcCh-143" target="ohR55EIoIwS_sdCDgcCh-145" edge="1">
          <mxGeometry relative="1" as="geometry" />
        </mxCell>
        <mxCell id="ohR55EIoIwS_sdCDgcCh-143" value="店家確認評論" style="rounded=1;whiteSpace=wrap;html=1;absoluteArcSize=1;arcSize=14;strokeWidth=2;" parent="ohR55EIoIwS_sdCDgcCh-9" vertex="1">
          <mxGeometry x="190" y="670" width="100" height="50" as="geometry" />
        </mxCell>
        <mxCell id="ohR55EIoIwS_sdCDgcCh-148" style="edgeStyle=orthogonalEdgeStyle;rounded=0;orthogonalLoop=1;jettySize=auto;html=1;entryX=0.5;entryY=0;entryDx=0;entryDy=0;" parent="ohR55EIoIwS_sdCDgcCh-9" source="ohR55EIoIwS_sdCDgcCh-145" target="ohR55EIoIwS_sdCDgcCh-147" edge="1">
          <mxGeometry relative="1" as="geometry" />
        </mxCell>
        <mxCell id="ohR55EIoIwS_sdCDgcCh-145" value="確認金額" style="rounded=1;whiteSpace=wrap;html=1;absoluteArcSize=1;arcSize=14;strokeWidth=2;" parent="ohR55EIoIwS_sdCDgcCh-9" vertex="1">
          <mxGeometry x="190" y="760" width="100" height="50" as="geometry" />
        </mxCell>
        <mxCell id="ohR55EIoIwS_sdCDgcCh-147" value="刷卡/付現/感應" style="rounded=1;whiteSpace=wrap;html=1;absoluteArcSize=1;arcSize=14;strokeWidth=2;" parent="ohR55EIoIwS_sdCDgcCh-9" vertex="1">
          <mxGeometry x="190" y="850" width="100" height="50" as="geometry" />
        </mxCell>
        <mxCell id="ohR55EIoIwS_sdCDgcCh-149" style="edgeStyle=orthogonalEdgeStyle;rounded=0;orthogonalLoop=1;jettySize=auto;html=1;entryX=0.5;entryY=0;entryDx=0;entryDy=0;" parent="ohR55EIoIwS_sdCDgcCh-9" source="ohR55EIoIwS_sdCDgcCh-150" target="ohR55EIoIwS_sdCDgcCh-151" edge="1">
          <mxGeometry relative="1" as="geometry" />
        </mxCell>
        <mxCell id="ohR55EIoIwS_sdCDgcCh-150" value="確認金額" style="rounded=1;whiteSpace=wrap;html=1;absoluteArcSize=1;arcSize=14;strokeWidth=2;" parent="ohR55EIoIwS_sdCDgcCh-9" vertex="1">
          <mxGeometry x="50" y="489.5" width="100" height="50" as="geometry" />
        </mxCell>
        <mxCell id="ohR55EIoIwS_sdCDgcCh-151" value="刷卡/付現/感應" style="rounded=1;whiteSpace=wrap;html=1;absoluteArcSize=1;arcSize=14;strokeWidth=2;" parent="ohR55EIoIwS_sdCDgcCh-9" vertex="1">
          <mxGeometry x="50" y="579.5" width="100" height="50" as="geometry" />
        </mxCell>
        <mxCell id="ohR55EIoIwS_sdCDgcCh-78" value="離開餐廳" style="swimlane;startSize=20;html=1;" parent="ohR55EIoIwS_sdCDgcCh-1" vertex="1">
          <mxGeometry x="1760" y="20" width="320" height="920" as="geometry" />
        </mxCell>
        <mxCell id="ohR55EIoIwS_sdCDgcCh-160" style="edgeStyle=orthogonalEdgeStyle;rounded=0;orthogonalLoop=1;jettySize=auto;html=1;entryX=0.5;entryY=0;entryDx=0;entryDy=0;" parent="ohR55EIoIwS_sdCDgcCh-78" source="ohR55EIoIwS_sdCDgcCh-155" target="ohR55EIoIwS_sdCDgcCh-156" edge="1">
          <mxGeometry relative="1" as="geometry" />
        </mxCell>
        <mxCell id="ohR55EIoIwS_sdCDgcCh-155" value="走出餐廳門口" style="rounded=1;whiteSpace=wrap;html=1;absoluteArcSize=1;arcSize=14;strokeWidth=2;" parent="ohR55EIoIwS_sdCDgcCh-78" vertex="1">
          <mxGeometry x="50" y="40" width="100" height="50" as="geometry" />
        </mxCell>
        <mxCell id="ohR55EIoIwS_sdCDgcCh-162" style="edgeStyle=orthogonalEdgeStyle;rounded=0;orthogonalLoop=1;jettySize=auto;html=1;" parent="ohR55EIoIwS_sdCDgcCh-78" source="ohR55EIoIwS_sdCDgcCh-156" target="ohR55EIoIwS_sdCDgcCh-161" edge="1">
          <mxGeometry relative="1" as="geometry" />
        </mxCell>
        <mxCell id="ohR55EIoIwS_sdCDgcCh-156" value="前往下個地點" style="rounded=1;whiteSpace=wrap;html=1;absoluteArcSize=1;arcSize=14;strokeWidth=2;" parent="ohR55EIoIwS_sdCDgcCh-78" vertex="1">
          <mxGeometry x="50" y="130" width="100" height="50" as="geometry" />
        </mxCell>
        <mxCell id="ohR55EIoIwS_sdCDgcCh-161" value="回想用餐經過" style="rounded=1;whiteSpace=wrap;html=1;absoluteArcSize=1;arcSize=14;strokeWidth=2;" parent="ohR55EIoIwS_sdCDgcCh-78" vertex="1">
          <mxGeometry x="50" y="220" width="100" height="50" as="geometry" />
        </mxCell>
        <mxCell id="ohR55EIoIwS_sdCDgcCh-165" style="edgeStyle=orthogonalEdgeStyle;rounded=0;orthogonalLoop=1;jettySize=auto;html=1;" parent="ohR55EIoIwS_sdCDgcCh-78" source="ohR55EIoIwS_sdCDgcCh-163" edge="1">
          <mxGeometry relative="1" as="geometry">
            <mxPoint x="100" y="400" as="targetPoint" />
          </mxGeometry>
        </mxCell>
        <mxCell id="ohR55EIoIwS_sdCDgcCh-167" value="不要" style="edgeLabel;html=1;align=center;verticalAlign=middle;resizable=0;points=[];" parent="ohR55EIoIwS_sdCDgcCh-165" vertex="1" connectable="0">
          <mxGeometry x="-0.1611" relative="1" as="geometry">
            <mxPoint as="offset" />
          </mxGeometry>
        </mxCell>
        <mxCell id="ohR55EIoIwS_sdCDgcCh-169" style="edgeStyle=orthogonalEdgeStyle;rounded=0;orthogonalLoop=1;jettySize=auto;html=1;entryX=0;entryY=0.5;entryDx=0;entryDy=0;" parent="ohR55EIoIwS_sdCDgcCh-78" source="ohR55EIoIwS_sdCDgcCh-163" target="ohR55EIoIwS_sdCDgcCh-168" edge="1">
          <mxGeometry relative="1" as="geometry" />
        </mxCell>
        <mxCell id="ohR55EIoIwS_sdCDgcCh-170" value="要" style="edgeLabel;html=1;align=center;verticalAlign=middle;resizable=0;points=[];" parent="ohR55EIoIwS_sdCDgcCh-169" vertex="1" connectable="0">
          <mxGeometry x="-0.3809" relative="1" as="geometry">
            <mxPoint as="offset" />
          </mxGeometry>
        </mxCell>
        <mxCell id="ohR55EIoIwS_sdCDgcCh-163" value="要不要分享" style="strokeWidth=2;html=1;shape=mxgraph.flowchart.decision;whiteSpace=wrap;" parent="ohR55EIoIwS_sdCDgcCh-78" vertex="1">
          <mxGeometry x="50" y="310" width="100" height="50" as="geometry" />
        </mxCell>
        <mxCell id="ohR55EIoIwS_sdCDgcCh-164" style="edgeStyle=orthogonalEdgeStyle;rounded=0;orthogonalLoop=1;jettySize=auto;html=1;entryX=0.5;entryY=0;entryDx=0;entryDy=0;entryPerimeter=0;" parent="ohR55EIoIwS_sdCDgcCh-78" source="ohR55EIoIwS_sdCDgcCh-161" target="ohR55EIoIwS_sdCDgcCh-163" edge="1">
          <mxGeometry relative="1" as="geometry" />
        </mxCell>
        <mxCell id="ohR55EIoIwS_sdCDgcCh-166" value="做下一件事" style="rounded=1;whiteSpace=wrap;html=1;absoluteArcSize=1;arcSize=14;strokeWidth=2;" parent="ohR55EIoIwS_sdCDgcCh-78" vertex="1">
          <mxGeometry x="50" y="400" width="100" height="50" as="geometry" />
        </mxCell>
        <mxCell id="ohR55EIoIwS_sdCDgcCh-168" value="找習慣的平台分享" style="rounded=1;whiteSpace=wrap;html=1;absoluteArcSize=1;arcSize=14;strokeWidth=2;fillColor=#ffe6cc;strokeColor=#d79b00;" parent="ohR55EIoIwS_sdCDgcCh-78" vertex="1">
          <mxGeometry x="190" y="310" width="100" height="50" as="geometry" />
        </mxCell>
        <mxCell id="ohR55EIoIwS_sdCDgcCh-19" style="edgeStyle=orthogonalEdgeStyle;rounded=0;orthogonalLoop=1;jettySize=auto;html=1;exitX=1;exitY=0.5;exitDx=0;exitDy=0;exitPerimeter=0;entryX=0;entryY=0.5;entryDx=0;entryDy=0;" parent="ohR55EIoIwS_sdCDgcCh-1" source="ohR55EIoIwS_sdCDgcCh-14" target="ohR55EIoIwS_sdCDgcCh-17" edge="1">
          <mxGeometry relative="1" as="geometry" />
        </mxCell>
        <mxCell id="ohR55EIoIwS_sdCDgcCh-44" style="edgeStyle=orthogonalEdgeStyle;rounded=0;orthogonalLoop=1;jettySize=auto;html=1;entryX=0;entryY=0.5;entryDx=0;entryDy=0;" parent="ohR55EIoIwS_sdCDgcCh-1" source="ohR55EIoIwS_sdCDgcCh-33" target="ohR55EIoIwS_sdCDgcCh-24" edge="1">
          <mxGeometry relative="1" as="geometry" />
        </mxCell>
        <mxCell id="ohR55EIoIwS_sdCDgcCh-45" value="不可以" style="edgeLabel;html=1;align=center;verticalAlign=middle;resizable=0;points=[];" parent="ohR55EIoIwS_sdCDgcCh-44" vertex="1" connectable="0">
          <mxGeometry x="-0.1246" y="1" relative="1" as="geometry">
            <mxPoint as="offset" />
          </mxGeometry>
        </mxCell>
        <mxCell id="ohR55EIoIwS_sdCDgcCh-46" style="edgeStyle=orthogonalEdgeStyle;rounded=0;orthogonalLoop=1;jettySize=auto;html=1;exitX=0.5;exitY=1;exitDx=0;exitDy=0;exitPerimeter=0;entryX=0.5;entryY=0;entryDx=0;entryDy=0;" parent="ohR55EIoIwS_sdCDgcCh-1" source="ohR55EIoIwS_sdCDgcCh-33" target="ohR55EIoIwS_sdCDgcCh-26" edge="1">
          <mxGeometry relative="1" as="geometry">
            <Array as="points">
              <mxPoint x="300" y="310" />
              <mxPoint x="370" y="310" />
              <mxPoint x="370" y="50" />
              <mxPoint x="650" y="50" />
            </Array>
          </mxGeometry>
        </mxCell>
        <mxCell id="ohR55EIoIwS_sdCDgcCh-47" value="可以" style="edgeLabel;html=1;align=center;verticalAlign=middle;resizable=0;points=[];" parent="ohR55EIoIwS_sdCDgcCh-46" vertex="1" connectable="0">
          <mxGeometry x="-0.8692" y="-1" relative="1" as="geometry">
            <mxPoint as="offset" />
          </mxGeometry>
        </mxCell>
        <mxCell id="ohR55EIoIwS_sdCDgcCh-49" style="edgeStyle=orthogonalEdgeStyle;rounded=0;orthogonalLoop=1;jettySize=auto;html=1;exitX=1;exitY=0.5;exitDx=0;exitDy=0;exitPerimeter=0;entryX=0;entryY=0.5;entryDx=0;entryDy=0;" parent="ohR55EIoIwS_sdCDgcCh-1" source="ohR55EIoIwS_sdCDgcCh-48" target="ohR55EIoIwS_sdCDgcCh-18" edge="1">
          <mxGeometry relative="1" as="geometry" />
        </mxCell>
        <mxCell id="ohR55EIoIwS_sdCDgcCh-51" value="不可以" style="edgeLabel;html=1;align=center;verticalAlign=middle;resizable=0;points=[];" parent="ohR55EIoIwS_sdCDgcCh-49" vertex="1" connectable="0">
          <mxGeometry x="-0.8009" relative="1" as="geometry">
            <mxPoint as="offset" />
          </mxGeometry>
        </mxCell>
        <mxCell id="ohR55EIoIwS_sdCDgcCh-68" style="edgeStyle=orthogonalEdgeStyle;rounded=0;orthogonalLoop=1;jettySize=auto;html=1;entryX=0;entryY=0.5;entryDx=0;entryDy=0;exitX=0;exitY=0.5;exitDx=0;exitDy=0;exitPerimeter=0;" parent="ohR55EIoIwS_sdCDgcCh-1" source="ohR55EIoIwS_sdCDgcCh-66" target="ohR55EIoIwS_sdCDgcCh-18" edge="1">
          <mxGeometry relative="1" as="geometry">
            <Array as="points">
              <mxPoint x="750" y="440" />
              <mxPoint x="230" y="440" />
              <mxPoint x="230" y="175" />
            </Array>
          </mxGeometry>
        </mxCell>
        <mxCell id="ohR55EIoIwS_sdCDgcCh-69" value="不可以" style="edgeLabel;html=1;align=center;verticalAlign=middle;resizable=0;points=[];" parent="ohR55EIoIwS_sdCDgcCh-68" vertex="1" connectable="0">
          <mxGeometry x="-0.8971" y="1" relative="1" as="geometry">
            <mxPoint as="offset" />
          </mxGeometry>
        </mxCell>
        <mxCell id="ohR55EIoIwS_sdCDgcCh-73" style="edgeStyle=orthogonalEdgeStyle;rounded=0;orthogonalLoop=1;jettySize=auto;html=1;entryX=0;entryY=0.5;entryDx=0;entryDy=0;" parent="ohR55EIoIwS_sdCDgcCh-1" source="ohR55EIoIwS_sdCDgcCh-48" target="ohR55EIoIwS_sdCDgcCh-70" edge="1">
          <mxGeometry relative="1" as="geometry">
            <Array as="points">
              <mxPoint x="480" y="460" />
              <mxPoint x="900" y="460" />
              <mxPoint x="900" y="85" />
            </Array>
          </mxGeometry>
        </mxCell>
        <mxCell id="ohR55EIoIwS_sdCDgcCh-76" value="可以" style="edgeLabel;html=1;align=center;verticalAlign=middle;resizable=0;points=[];" parent="ohR55EIoIwS_sdCDgcCh-73" vertex="1" connectable="0">
          <mxGeometry x="-0.8907" y="-1" relative="1" as="geometry">
            <mxPoint as="offset" />
          </mxGeometry>
        </mxCell>
        <mxCell id="ohR55EIoIwS_sdCDgcCh-74" style="edgeStyle=orthogonalEdgeStyle;rounded=0;orthogonalLoop=1;jettySize=auto;html=1;entryX=0;entryY=0.5;entryDx=0;entryDy=0;" parent="ohR55EIoIwS_sdCDgcCh-1" source="ohR55EIoIwS_sdCDgcCh-66" target="ohR55EIoIwS_sdCDgcCh-70" edge="1">
          <mxGeometry relative="1" as="geometry">
            <Array as="points">
              <mxPoint x="800" y="460" />
              <mxPoint x="900" y="460" />
              <mxPoint x="900" y="85" />
            </Array>
          </mxGeometry>
        </mxCell>
        <mxCell id="ohR55EIoIwS_sdCDgcCh-77" value="可以" style="edgeLabel;html=1;align=center;verticalAlign=middle;resizable=0;points=[];" parent="ohR55EIoIwS_sdCDgcCh-74" vertex="1" connectable="0">
          <mxGeometry x="-0.9063" y="-2" relative="1" as="geometry">
            <mxPoint as="offset" />
          </mxGeometry>
        </mxCell>
        <mxCell id="ohR55EIoIwS_sdCDgcCh-81" style="edgeStyle=orthogonalEdgeStyle;rounded=0;orthogonalLoop=1;jettySize=auto;html=1;entryX=0;entryY=0.5;entryDx=0;entryDy=0;" parent="ohR55EIoIwS_sdCDgcCh-1" source="ohR55EIoIwS_sdCDgcCh-72" target="ohR55EIoIwS_sdCDgcCh-79" edge="1">
          <mxGeometry relative="1" as="geometry">
            <Array as="points">
              <mxPoint x="1100" y="175" />
              <mxPoint x="1100" y="85" />
            </Array>
          </mxGeometry>
        </mxCell>
        <mxCell id="ohR55EIoIwS_sdCDgcCh-129" style="edgeStyle=orthogonalEdgeStyle;rounded=0;orthogonalLoop=1;jettySize=auto;html=1;entryX=0;entryY=0.5;entryDx=0;entryDy=0;exitX=0.5;exitY=1;exitDx=0;exitDy=0;" parent="ohR55EIoIwS_sdCDgcCh-1" source="ohR55EIoIwS_sdCDgcCh-110" target="ohR55EIoIwS_sdCDgcCh-83" edge="1">
          <mxGeometry relative="1" as="geometry">
            <Array as="points">
              <mxPoint x="1195" y="850" />
              <mxPoint x="1460" y="850" />
              <mxPoint x="1460" y="85" />
            </Array>
          </mxGeometry>
        </mxCell>
        <mxCell id="ohR55EIoIwS_sdCDgcCh-130" style="edgeStyle=orthogonalEdgeStyle;rounded=0;orthogonalLoop=1;jettySize=auto;html=1;entryX=0;entryY=0.5;entryDx=0;entryDy=0;exitX=0.5;exitY=1;exitDx=0;exitDy=0;" parent="ohR55EIoIwS_sdCDgcCh-1" source="ohR55EIoIwS_sdCDgcCh-127" target="ohR55EIoIwS_sdCDgcCh-83" edge="1">
          <mxGeometry relative="1" as="geometry">
            <Array as="points">
              <mxPoint x="1345" y="850" />
              <mxPoint x="1460" y="850" />
              <mxPoint x="1460" y="85" />
            </Array>
          </mxGeometry>
        </mxCell>
        <mxCell id="ohR55EIoIwS_sdCDgcCh-157" style="edgeStyle=orthogonalEdgeStyle;rounded=0;orthogonalLoop=1;jettySize=auto;html=1;entryX=0;entryY=0.5;entryDx=0;entryDy=0;exitX=0.5;exitY=1;exitDx=0;exitDy=0;" parent="ohR55EIoIwS_sdCDgcCh-1" source="ohR55EIoIwS_sdCDgcCh-151" target="ohR55EIoIwS_sdCDgcCh-155" edge="1">
          <mxGeometry relative="1" as="geometry">
            <Array as="points">
              <mxPoint x="1540" y="930" />
              <mxPoint x="1790" y="930" />
              <mxPoint x="1790" y="85" />
            </Array>
          </mxGeometry>
        </mxCell>
        <mxCell id="ohR55EIoIwS_sdCDgcCh-159" style="edgeStyle=orthogonalEdgeStyle;rounded=0;orthogonalLoop=1;jettySize=auto;html=1;entryX=0;entryY=0.5;entryDx=0;entryDy=0;exitX=0.5;exitY=1;exitDx=0;exitDy=0;" parent="ohR55EIoIwS_sdCDgcCh-1" source="ohR55EIoIwS_sdCDgcCh-147" target="ohR55EIoIwS_sdCDgcCh-155" edge="1">
          <mxGeometry relative="1" as="geometry">
            <Array as="points">
              <mxPoint x="1680" y="930" />
              <mxPoint x="1790" y="930" />
              <mxPoint x="1790" y="85" />
            </Array>
          </mxGeometry>
        </mxCell>
        <mxCell id="Ih51Shhw_fb4dxagCBIC-1" style="edgeStyle=orthogonalEdgeStyle;rounded=0;orthogonalLoop=1;jettySize=auto;html=1;entryX=0;entryY=0.5;entryDx=0;entryDy=0;" parent="ohR55EIoIwS_sdCDgcCh-1" source="ohR55EIoIwS_sdCDgcCh-15" target="ohR55EIoIwS_sdCDgcCh-17" edge="1">
          <mxGeometry relative="1" as="geometry">
            <Array as="points">
              <mxPoint x="180" y="185" />
              <mxPoint x="180" y="85" />
            </Array>
          </mxGeometry>
        </mxCell>
        <mxCell id="ohR55EIoIwS_sdCDgcCh-16" value="現在在百貨美食找晚餐吃" style="strokeWidth=2;html=1;shape=mxgraph.flowchart.start_1;whiteSpace=wrap;" parent="1" vertex="1">
          <mxGeometry x="-159.99999999999955" y="410" width="100" height="50" as="geometry" />
        </mxCell>
        <mxCell id="ohR55EIoIwS_sdCDgcCh-292" value="餐廳體驗3" style="swimlane;childLayout=stackLayout;resizeParent=1;resizeParentMax=0;startSize=20;html=1;fillColor=#b0e3e6;strokeColor=#0e8088;" parent="1" vertex="1">
          <mxGeometry x="10" y="1000" width="2080" height="940" as="geometry" />
        </mxCell>
        <mxCell id="ohR55EIoIwS_sdCDgcCh-293" value="產生需求" style="swimlane;startSize=20;html=1;" parent="ohR55EIoIwS_sdCDgcCh-292" vertex="1">
          <mxGeometry y="20" width="200" height="920" as="geometry">
            <mxRectangle y="20" width="40" height="460" as="alternateBounds" />
          </mxGeometry>
        </mxCell>
        <mxCell id="ohR55EIoIwS_sdCDgcCh-294" value="現在在百貨&lt;div&gt;美食街&lt;span style=&quot;background-color: transparent; color: light-dark(rgb(0, 0, 0), rgb(255, 255, 255));&quot;&gt;找飯吃&lt;/span&gt;&lt;/div&gt;" style="strokeWidth=2;html=1;shape=mxgraph.flowchart.start_1;whiteSpace=wrap;" parent="ohR55EIoIwS_sdCDgcCh-293" vertex="1">
          <mxGeometry x="50" y="40" width="100" height="50" as="geometry" />
        </mxCell>
        <mxCell id="ohR55EIoIwS_sdCDgcCh-295" value="確認目標餐廳" style="swimlane;startSize=20;html=1;" parent="ohR55EIoIwS_sdCDgcCh-292" vertex="1">
          <mxGeometry x="200" y="20" width="200" height="920" as="geometry" />
        </mxCell>
        <mxCell id="ohR55EIoIwS_sdCDgcCh-296" style="edgeStyle=orthogonalEdgeStyle;rounded=0;orthogonalLoop=1;jettySize=auto;html=1;exitX=0.5;exitY=1;exitDx=0;exitDy=0;entryX=0.5;entryY=0;entryDx=0;entryDy=0;fillColor=#f8cecc;strokeColor=#b85450;" parent="ohR55EIoIwS_sdCDgcCh-295" source="ohR55EIoIwS_sdCDgcCh-297" edge="1">
          <mxGeometry relative="1" as="geometry">
            <mxPoint x="100" y="130" as="targetPoint" />
          </mxGeometry>
        </mxCell>
        <mxCell id="ohR55EIoIwS_sdCDgcCh-297" value="靠近餐廳" style="rounded=1;whiteSpace=wrap;html=1;absoluteArcSize=1;arcSize=14;strokeWidth=2;fillColor=#f8cecc;strokeColor=#b85450;" parent="ohR55EIoIwS_sdCDgcCh-295" vertex="1">
          <mxGeometry x="50" y="40" width="100" height="50" as="geometry" />
        </mxCell>
        <mxCell id="ohR55EIoIwS_sdCDgcCh-653" value="確認店家&lt;div&gt;是否候位&lt;/div&gt;" style="strokeWidth=2;html=1;shape=mxgraph.flowchart.decision;whiteSpace=wrap;fillColor=#f8cecc;strokeColor=#b85450;" parent="ohR55EIoIwS_sdCDgcCh-295" vertex="1">
          <mxGeometry x="50" y="130" width="100" height="50" as="geometry" />
        </mxCell>
        <mxCell id="ohR55EIoIwS_sdCDgcCh-657" value="是否有線上&lt;div&gt;候位系統&lt;/div&gt;" style="strokeWidth=2;html=1;shape=mxgraph.flowchart.decision;whiteSpace=wrap;fillColor=#f8cecc;strokeColor=#b85450;" parent="ohR55EIoIwS_sdCDgcCh-295" vertex="1">
          <mxGeometry x="50" y="220" width="100" height="50" as="geometry" />
        </mxCell>
        <mxCell id="ohR55EIoIwS_sdCDgcCh-658" style="edgeStyle=orthogonalEdgeStyle;rounded=0;orthogonalLoop=1;jettySize=auto;html=1;entryX=0.5;entryY=0;entryDx=0;entryDy=0;entryPerimeter=0;fillColor=#f8cecc;strokeColor=#b85450;" parent="ohR55EIoIwS_sdCDgcCh-295" source="ohR55EIoIwS_sdCDgcCh-653" target="ohR55EIoIwS_sdCDgcCh-657" edge="1">
          <mxGeometry relative="1" as="geometry" />
        </mxCell>
        <mxCell id="ohR55EIoIwS_sdCDgcCh-659" value="要" style="edgeLabel;html=1;align=center;verticalAlign=middle;resizable=0;points=[];" parent="ohR55EIoIwS_sdCDgcCh-658" vertex="1" connectable="0">
          <mxGeometry x="-0.1259" y="-1" relative="1" as="geometry">
            <mxPoint as="offset" />
          </mxGeometry>
        </mxCell>
        <mxCell id="ohR55EIoIwS_sdCDgcCh-301" value="定位/候位" style="swimlane;startSize=20;html=1;" parent="ohR55EIoIwS_sdCDgcCh-292" vertex="1">
          <mxGeometry x="400" y="20" width="480" height="920" as="geometry" />
        </mxCell>
        <mxCell id="ohR55EIoIwS_sdCDgcCh-679" style="edgeStyle=orthogonalEdgeStyle;rounded=0;orthogonalLoop=1;jettySize=auto;html=1;entryX=0.5;entryY=0;entryDx=0;entryDy=0;" parent="ohR55EIoIwS_sdCDgcCh-301" source="ohR55EIoIwS_sdCDgcCh-661" target="ohR55EIoIwS_sdCDgcCh-667" edge="1">
          <mxGeometry relative="1" as="geometry" />
        </mxCell>
        <mxCell id="ohR55EIoIwS_sdCDgcCh-661" value="進線上候位系統" style="rounded=1;whiteSpace=wrap;html=1;absoluteArcSize=1;arcSize=14;strokeWidth=2;fillColor=#f8cecc;strokeColor=#b85450;" parent="ohR55EIoIwS_sdCDgcCh-301" vertex="1">
          <mxGeometry x="30" y="40" width="100" height="50" as="geometry" />
        </mxCell>
        <mxCell id="ohR55EIoIwS_sdCDgcCh-690" style="edgeStyle=orthogonalEdgeStyle;rounded=0;orthogonalLoop=1;jettySize=auto;html=1;entryX=0.5;entryY=0;entryDx=0;entryDy=0;" parent="ohR55EIoIwS_sdCDgcCh-301" source="ohR55EIoIwS_sdCDgcCh-662" target="ohR55EIoIwS_sdCDgcCh-682" edge="1">
          <mxGeometry relative="1" as="geometry" />
        </mxCell>
        <mxCell id="ohR55EIoIwS_sdCDgcCh-662" value="紙本登記" style="rounded=1;whiteSpace=wrap;html=1;absoluteArcSize=1;arcSize=14;strokeWidth=2;fillColor=#f8cecc;strokeColor=#b85450;" parent="ohR55EIoIwS_sdCDgcCh-301" vertex="1">
          <mxGeometry x="180" y="40" width="100" height="50" as="geometry" />
        </mxCell>
        <mxCell id="ohR55EIoIwS_sdCDgcCh-680" style="edgeStyle=orthogonalEdgeStyle;rounded=0;orthogonalLoop=1;jettySize=auto;html=1;entryX=0.5;entryY=0;entryDx=0;entryDy=0;" parent="ohR55EIoIwS_sdCDgcCh-301" source="ohR55EIoIwS_sdCDgcCh-667" target="ohR55EIoIwS_sdCDgcCh-668" edge="1">
          <mxGeometry relative="1" as="geometry" />
        </mxCell>
        <mxCell id="ohR55EIoIwS_sdCDgcCh-667" value="輸入人數/電話" style="rounded=1;whiteSpace=wrap;html=1;absoluteArcSize=1;arcSize=14;strokeWidth=2;" parent="ohR55EIoIwS_sdCDgcCh-301" vertex="1">
          <mxGeometry x="30" y="130" width="100" height="50" as="geometry" />
        </mxCell>
        <mxCell id="ohR55EIoIwS_sdCDgcCh-681" style="edgeStyle=orthogonalEdgeStyle;rounded=0;orthogonalLoop=1;jettySize=auto;html=1;entryX=0.5;entryY=0;entryDx=0;entryDy=0;" parent="ohR55EIoIwS_sdCDgcCh-301" source="ohR55EIoIwS_sdCDgcCh-668" target="ohR55EIoIwS_sdCDgcCh-669" edge="1">
          <mxGeometry relative="1" as="geometry" />
        </mxCell>
        <mxCell id="ohR55EIoIwS_sdCDgcCh-668" value="送出" style="rounded=1;whiteSpace=wrap;html=1;absoluteArcSize=1;arcSize=14;strokeWidth=2;" parent="ohR55EIoIwS_sdCDgcCh-301" vertex="1">
          <mxGeometry x="30" y="220" width="100" height="50" as="geometry" />
        </mxCell>
        <mxCell id="ohR55EIoIwS_sdCDgcCh-669" value="知道候位組數" style="rounded=1;whiteSpace=wrap;html=1;absoluteArcSize=1;arcSize=14;strokeWidth=2;" parent="ohR55EIoIwS_sdCDgcCh-301" vertex="1">
          <mxGeometry x="30" y="310" width="100" height="50" as="geometry" />
        </mxCell>
        <mxCell id="ohR55EIoIwS_sdCDgcCh-688" style="edgeStyle=orthogonalEdgeStyle;rounded=0;orthogonalLoop=1;jettySize=auto;html=1;entryX=0.5;entryY=0;entryDx=0;entryDy=0;" parent="ohR55EIoIwS_sdCDgcCh-301" source="ohR55EIoIwS_sdCDgcCh-670" target="ohR55EIoIwS_sdCDgcCh-687" edge="1">
          <mxGeometry relative="1" as="geometry" />
        </mxCell>
        <mxCell id="ohR55EIoIwS_sdCDgcCh-689" value="不要" style="edgeLabel;html=1;align=center;verticalAlign=middle;resizable=0;points=[];" parent="ohR55EIoIwS_sdCDgcCh-688" vertex="1" connectable="0">
          <mxGeometry x="-0.271" relative="1" as="geometry">
            <mxPoint as="offset" />
          </mxGeometry>
        </mxCell>
        <mxCell id="ohR55EIoIwS_sdCDgcCh-670" value="要不要找下一家" style="strokeWidth=2;html=1;shape=mxgraph.flowchart.decision;whiteSpace=wrap;fillColor=#f8cecc;strokeColor=#b85450;" parent="ohR55EIoIwS_sdCDgcCh-301" vertex="1">
          <mxGeometry x="30" y="400" width="100" height="50" as="geometry" />
        </mxCell>
        <mxCell id="ohR55EIoIwS_sdCDgcCh-672" style="edgeStyle=orthogonalEdgeStyle;rounded=0;orthogonalLoop=1;jettySize=auto;html=1;entryX=0.5;entryY=0;entryDx=0;entryDy=0;entryPerimeter=0;" parent="ohR55EIoIwS_sdCDgcCh-301" source="ohR55EIoIwS_sdCDgcCh-669" target="ohR55EIoIwS_sdCDgcCh-670" edge="1">
          <mxGeometry relative="1" as="geometry" />
        </mxCell>
        <mxCell id="ohR55EIoIwS_sdCDgcCh-691" style="edgeStyle=orthogonalEdgeStyle;rounded=0;orthogonalLoop=1;jettySize=auto;html=1;entryX=0.5;entryY=0;entryDx=0;entryDy=0;" parent="ohR55EIoIwS_sdCDgcCh-301" source="ohR55EIoIwS_sdCDgcCh-682" target="ohR55EIoIwS_sdCDgcCh-683" edge="1">
          <mxGeometry relative="1" as="geometry" />
        </mxCell>
        <mxCell id="ohR55EIoIwS_sdCDgcCh-682" value="寫人數/電話" style="rounded=1;whiteSpace=wrap;html=1;absoluteArcSize=1;arcSize=14;strokeWidth=2;" parent="ohR55EIoIwS_sdCDgcCh-301" vertex="1">
          <mxGeometry x="180" y="130" width="100" height="50" as="geometry" />
        </mxCell>
        <mxCell id="ohR55EIoIwS_sdCDgcCh-683" value="知道候位組數" style="rounded=1;whiteSpace=wrap;html=1;absoluteArcSize=1;arcSize=14;strokeWidth=2;" parent="ohR55EIoIwS_sdCDgcCh-301" vertex="1">
          <mxGeometry x="180" y="220" width="100" height="50" as="geometry" />
        </mxCell>
        <mxCell id="4ajuV6uHc0gaihr2h6cn-10" style="edgeStyle=orthogonalEdgeStyle;rounded=0;orthogonalLoop=1;jettySize=auto;html=1;entryX=0;entryY=0.5;entryDx=0;entryDy=0;" edge="1" parent="ohR55EIoIwS_sdCDgcCh-301" source="ohR55EIoIwS_sdCDgcCh-686" target="4ajuV6uHc0gaihr2h6cn-9">
          <mxGeometry relative="1" as="geometry" />
        </mxCell>
        <mxCell id="4ajuV6uHc0gaihr2h6cn-11" value="不會" style="edgeLabel;html=1;align=center;verticalAlign=middle;resizable=0;points=[];" vertex="1" connectable="0" parent="4ajuV6uHc0gaihr2h6cn-10">
          <mxGeometry x="-0.1048" y="-1" relative="1" as="geometry">
            <mxPoint as="offset" />
          </mxGeometry>
        </mxCell>
        <mxCell id="4ajuV6uHc0gaihr2h6cn-13" style="edgeStyle=orthogonalEdgeStyle;rounded=0;orthogonalLoop=1;jettySize=auto;html=1;entryX=0.5;entryY=0;entryDx=0;entryDy=0;" edge="1" parent="ohR55EIoIwS_sdCDgcCh-301" source="ohR55EIoIwS_sdCDgcCh-686" target="4ajuV6uHc0gaihr2h6cn-12">
          <mxGeometry relative="1" as="geometry" />
        </mxCell>
        <mxCell id="4ajuV6uHc0gaihr2h6cn-14" value="會" style="edgeLabel;html=1;align=center;verticalAlign=middle;resizable=0;points=[];" vertex="1" connectable="0" parent="4ajuV6uHc0gaihr2h6cn-13">
          <mxGeometry x="-0.1583" y="-2" relative="1" as="geometry">
            <mxPoint as="offset" />
          </mxGeometry>
        </mxCell>
        <mxCell id="ohR55EIoIwS_sdCDgcCh-686" value="店家會不會&lt;div&gt;電話通知&lt;/div&gt;" style="strokeWidth=2;html=1;shape=mxgraph.flowchart.decision;whiteSpace=wrap;" parent="ohR55EIoIwS_sdCDgcCh-301" vertex="1">
          <mxGeometry x="180" y="310" width="100" height="50" as="geometry" />
        </mxCell>
        <mxCell id="ohR55EIoIwS_sdCDgcCh-687" value="&lt;div&gt;到處逛逛&lt;/div&gt;" style="rounded=1;whiteSpace=wrap;html=1;absoluteArcSize=1;arcSize=14;strokeWidth=2;" parent="ohR55EIoIwS_sdCDgcCh-301" vertex="1">
          <mxGeometry x="30" y="490" width="100" height="50" as="geometry" />
        </mxCell>
        <mxCell id="ohR55EIoIwS_sdCDgcCh-692" style="edgeStyle=orthogonalEdgeStyle;rounded=0;orthogonalLoop=1;jettySize=auto;html=1;entryX=0.5;entryY=0;entryDx=0;entryDy=0;entryPerimeter=0;" parent="ohR55EIoIwS_sdCDgcCh-301" source="ohR55EIoIwS_sdCDgcCh-683" target="ohR55EIoIwS_sdCDgcCh-686" edge="1">
          <mxGeometry relative="1" as="geometry" />
        </mxCell>
        <mxCell id="4ajuV6uHc0gaihr2h6cn-27" style="edgeStyle=orthogonalEdgeStyle;rounded=0;orthogonalLoop=1;jettySize=auto;html=1;entryX=0.5;entryY=0;entryDx=0;entryDy=0;" edge="1" parent="ohR55EIoIwS_sdCDgcCh-301" source="4ajuV6uHc0gaihr2h6cn-8" target="4ajuV6uHc0gaihr2h6cn-24">
          <mxGeometry relative="1" as="geometry" />
        </mxCell>
        <mxCell id="4ajuV6uHc0gaihr2h6cn-28" value="不要" style="edgeLabel;html=1;align=center;verticalAlign=middle;resizable=0;points=[];" vertex="1" connectable="0" parent="4ajuV6uHc0gaihr2h6cn-27">
          <mxGeometry x="-0.5101" y="-3" relative="1" as="geometry">
            <mxPoint y="1" as="offset" />
          </mxGeometry>
        </mxCell>
        <mxCell id="4ajuV6uHc0gaihr2h6cn-8" value="要不要找下一家" style="strokeWidth=2;html=1;shape=mxgraph.flowchart.decision;whiteSpace=wrap;fillColor=#f8cecc;strokeColor=#b85450;" vertex="1" parent="ohR55EIoIwS_sdCDgcCh-301">
          <mxGeometry x="180" y="490" width="100" height="50" as="geometry" />
        </mxCell>
        <mxCell id="4ajuV6uHc0gaihr2h6cn-9" value="&lt;div&gt;現場等&lt;/div&gt;" style="rounded=1;whiteSpace=wrap;html=1;absoluteArcSize=1;arcSize=14;strokeWidth=2;" vertex="1" parent="ohR55EIoIwS_sdCDgcCh-301">
          <mxGeometry x="330" y="310" width="100" height="50" as="geometry" />
        </mxCell>
        <mxCell id="4ajuV6uHc0gaihr2h6cn-12" value="&lt;div&gt;到處逛逛&lt;/div&gt;" style="rounded=1;whiteSpace=wrap;html=1;absoluteArcSize=1;arcSize=14;strokeWidth=2;" vertex="1" parent="ohR55EIoIwS_sdCDgcCh-301">
          <mxGeometry x="180" y="400" width="100" height="50" as="geometry" />
        </mxCell>
        <mxCell id="4ajuV6uHc0gaihr2h6cn-15" style="edgeStyle=orthogonalEdgeStyle;rounded=0;orthogonalLoop=1;jettySize=auto;html=1;entryX=0.5;entryY=0;entryDx=0;entryDy=0;entryPerimeter=0;" edge="1" parent="ohR55EIoIwS_sdCDgcCh-301" source="4ajuV6uHc0gaihr2h6cn-12" target="4ajuV6uHc0gaihr2h6cn-8">
          <mxGeometry relative="1" as="geometry" />
        </mxCell>
        <mxCell id="4ajuV6uHc0gaihr2h6cn-29" style="edgeStyle=orthogonalEdgeStyle;rounded=0;orthogonalLoop=1;jettySize=auto;html=1;entryX=0.5;entryY=0;entryDx=0;entryDy=0;" edge="1" parent="ohR55EIoIwS_sdCDgcCh-301" source="4ajuV6uHc0gaihr2h6cn-20" target="4ajuV6uHc0gaihr2h6cn-25">
          <mxGeometry relative="1" as="geometry" />
        </mxCell>
        <mxCell id="4ajuV6uHc0gaihr2h6cn-30" value="不要" style="edgeLabel;html=1;align=center;verticalAlign=middle;resizable=0;points=[];" vertex="1" connectable="0" parent="4ajuV6uHc0gaihr2h6cn-29">
          <mxGeometry x="-0.5735" y="-2" relative="1" as="geometry">
            <mxPoint y="1" as="offset" />
          </mxGeometry>
        </mxCell>
        <mxCell id="4ajuV6uHc0gaihr2h6cn-20" value="要不要找下一家" style="strokeWidth=2;html=1;shape=mxgraph.flowchart.decision;whiteSpace=wrap;fillColor=#f8cecc;strokeColor=#b85450;" vertex="1" parent="ohR55EIoIwS_sdCDgcCh-301">
          <mxGeometry x="330" y="490" width="100" height="50" as="geometry" />
        </mxCell>
        <mxCell id="4ajuV6uHc0gaihr2h6cn-21" style="edgeStyle=orthogonalEdgeStyle;rounded=0;orthogonalLoop=1;jettySize=auto;html=1;entryX=0.5;entryY=0;entryDx=0;entryDy=0;entryPerimeter=0;" edge="1" parent="ohR55EIoIwS_sdCDgcCh-301" source="4ajuV6uHc0gaihr2h6cn-9" target="4ajuV6uHc0gaihr2h6cn-20">
          <mxGeometry relative="1" as="geometry" />
        </mxCell>
        <mxCell id="4ajuV6uHc0gaihr2h6cn-24" value="&lt;div&gt;到處逛逛&lt;/div&gt;" style="rounded=1;whiteSpace=wrap;html=1;absoluteArcSize=1;arcSize=14;strokeWidth=2;" vertex="1" parent="ohR55EIoIwS_sdCDgcCh-301">
          <mxGeometry x="180" y="630" width="100" height="50" as="geometry" />
        </mxCell>
        <mxCell id="4ajuV6uHc0gaihr2h6cn-25" value="現場等" style="rounded=1;whiteSpace=wrap;html=1;absoluteArcSize=1;arcSize=14;strokeWidth=2;" vertex="1" parent="ohR55EIoIwS_sdCDgcCh-301">
          <mxGeometry x="330" y="630" width="100" height="50" as="geometry" />
        </mxCell>
        <mxCell id="ohR55EIoIwS_sdCDgcCh-317" value="到餐廳" style="swimlane;startSize=20;html=1;" parent="ohR55EIoIwS_sdCDgcCh-292" vertex="1">
          <mxGeometry x="880" y="20" width="200" height="920" as="geometry" />
        </mxCell>
        <mxCell id="ohR55EIoIwS_sdCDgcCh-318" style="edgeStyle=orthogonalEdgeStyle;rounded=0;orthogonalLoop=1;jettySize=auto;html=1;" parent="ohR55EIoIwS_sdCDgcCh-317" source="ohR55EIoIwS_sdCDgcCh-319" target="ohR55EIoIwS_sdCDgcCh-320" edge="1">
          <mxGeometry relative="1" as="geometry" />
        </mxCell>
        <mxCell id="ohR55EIoIwS_sdCDgcCh-319" value="收到通知可以入座" style="rounded=1;whiteSpace=wrap;html=1;absoluteArcSize=1;arcSize=14;strokeWidth=2;" parent="ohR55EIoIwS_sdCDgcCh-317" vertex="1">
          <mxGeometry x="50" y="40" width="100" height="50" as="geometry" />
        </mxCell>
        <mxCell id="ohR55EIoIwS_sdCDgcCh-320" value="抵達餐廳" style="rounded=1;whiteSpace=wrap;html=1;absoluteArcSize=1;arcSize=14;strokeWidth=2;" parent="ohR55EIoIwS_sdCDgcCh-317" vertex="1">
          <mxGeometry x="50" y="130" width="100" height="50" as="geometry" />
        </mxCell>
        <mxCell id="ohR55EIoIwS_sdCDgcCh-321" value="點餐" style="swimlane;startSize=20;html=1;" parent="ohR55EIoIwS_sdCDgcCh-292" vertex="1">
          <mxGeometry x="1080" y="20" width="360" height="920" as="geometry" />
        </mxCell>
        <mxCell id="ohR55EIoIwS_sdCDgcCh-322" style="edgeStyle=orthogonalEdgeStyle;rounded=0;orthogonalLoop=1;jettySize=auto;html=1;entryX=0.5;entryY=0;entryDx=0;entryDy=0;" parent="ohR55EIoIwS_sdCDgcCh-321" source="ohR55EIoIwS_sdCDgcCh-323" target="ohR55EIoIwS_sdCDgcCh-325" edge="1">
          <mxGeometry relative="1" as="geometry" />
        </mxCell>
        <mxCell id="ohR55EIoIwS_sdCDgcCh-323" value="確認候位資訊" style="rounded=1;whiteSpace=wrap;html=1;absoluteArcSize=1;arcSize=14;strokeWidth=2;" parent="ohR55EIoIwS_sdCDgcCh-321" vertex="1">
          <mxGeometry x="65" y="40" width="100" height="50" as="geometry" />
        </mxCell>
        <mxCell id="ohR55EIoIwS_sdCDgcCh-324" style="edgeStyle=orthogonalEdgeStyle;rounded=0;orthogonalLoop=1;jettySize=auto;html=1;entryX=0.5;entryY=0;entryDx=0;entryDy=0;" parent="ohR55EIoIwS_sdCDgcCh-321" source="ohR55EIoIwS_sdCDgcCh-325" target="ohR55EIoIwS_sdCDgcCh-326" edge="1">
          <mxGeometry relative="1" as="geometry" />
        </mxCell>
        <mxCell id="ohR55EIoIwS_sdCDgcCh-325" value="入座" style="rounded=1;whiteSpace=wrap;html=1;absoluteArcSize=1;arcSize=14;strokeWidth=2;" parent="ohR55EIoIwS_sdCDgcCh-321" vertex="1">
          <mxGeometry x="65" y="130" width="100" height="50" as="geometry" />
        </mxCell>
        <mxCell id="ohR55EIoIwS_sdCDgcCh-326" value="店家提供菜單" style="rounded=1;whiteSpace=wrap;html=1;absoluteArcSize=1;arcSize=14;strokeWidth=2;" parent="ohR55EIoIwS_sdCDgcCh-321" vertex="1">
          <mxGeometry x="65" y="220" width="100" height="50" as="geometry" />
        </mxCell>
        <mxCell id="ohR55EIoIwS_sdCDgcCh-327" style="edgeStyle=orthogonalEdgeStyle;rounded=0;orthogonalLoop=1;jettySize=auto;html=1;entryX=0;entryY=0.5;entryDx=0;entryDy=0;" parent="ohR55EIoIwS_sdCDgcCh-321" source="ohR55EIoIwS_sdCDgcCh-331" target="ohR55EIoIwS_sdCDgcCh-333" edge="1">
          <mxGeometry relative="1" as="geometry">
            <mxPoint x="205" y="335" as="targetPoint" />
          </mxGeometry>
        </mxCell>
        <mxCell id="ohR55EIoIwS_sdCDgcCh-328" value="有" style="edgeLabel;html=1;align=center;verticalAlign=middle;resizable=0;points=[];" parent="ohR55EIoIwS_sdCDgcCh-327" vertex="1" connectable="0">
          <mxGeometry x="-0.36" y="2" relative="1" as="geometry">
            <mxPoint as="offset" />
          </mxGeometry>
        </mxCell>
        <mxCell id="ohR55EIoIwS_sdCDgcCh-329" style="edgeStyle=orthogonalEdgeStyle;rounded=0;orthogonalLoop=1;jettySize=auto;html=1;" parent="ohR55EIoIwS_sdCDgcCh-321" source="ohR55EIoIwS_sdCDgcCh-331" edge="1">
          <mxGeometry relative="1" as="geometry">
            <mxPoint x="115" y="400" as="targetPoint" />
          </mxGeometry>
        </mxCell>
        <mxCell id="ohR55EIoIwS_sdCDgcCh-330" value="沒有" style="edgeLabel;html=1;align=center;verticalAlign=middle;resizable=0;points=[];" parent="ohR55EIoIwS_sdCDgcCh-329" vertex="1" connectable="0">
          <mxGeometry x="-0.2396" y="-2" relative="1" as="geometry">
            <mxPoint as="offset" />
          </mxGeometry>
        </mxCell>
        <mxCell id="ohR55EIoIwS_sdCDgcCh-331" value="店家有無&lt;div&gt;評論招待活動&lt;/div&gt;" style="strokeWidth=2;html=1;shape=mxgraph.flowchart.decision;whiteSpace=wrap;" parent="ohR55EIoIwS_sdCDgcCh-321" vertex="1">
          <mxGeometry x="65" y="310" width="100" height="50" as="geometry" />
        </mxCell>
        <mxCell id="ohR55EIoIwS_sdCDgcCh-332" style="edgeStyle=orthogonalEdgeStyle;rounded=0;orthogonalLoop=1;jettySize=auto;html=1;entryX=0.5;entryY=0;entryDx=0;entryDy=0;entryPerimeter=0;" parent="ohR55EIoIwS_sdCDgcCh-321" source="ohR55EIoIwS_sdCDgcCh-326" target="ohR55EIoIwS_sdCDgcCh-331" edge="1">
          <mxGeometry relative="1" as="geometry" />
        </mxCell>
        <mxCell id="ohR55EIoIwS_sdCDgcCh-333" value="店家說明/提供&lt;div&gt;活動資訊&lt;/div&gt;" style="rounded=1;whiteSpace=wrap;html=1;absoluteArcSize=1;arcSize=14;strokeWidth=2;" parent="ohR55EIoIwS_sdCDgcCh-321" vertex="1">
          <mxGeometry x="215" y="310" width="100" height="50" as="geometry" />
        </mxCell>
        <mxCell id="ohR55EIoIwS_sdCDgcCh-334" style="edgeStyle=orthogonalEdgeStyle;rounded=0;orthogonalLoop=1;jettySize=auto;html=1;entryX=0.5;entryY=0;entryDx=0;entryDy=0;" parent="ohR55EIoIwS_sdCDgcCh-321" source="ohR55EIoIwS_sdCDgcCh-335" target="ohR55EIoIwS_sdCDgcCh-344" edge="1">
          <mxGeometry relative="1" as="geometry" />
        </mxCell>
        <mxCell id="ohR55EIoIwS_sdCDgcCh-335" value="客人看菜單" style="rounded=1;whiteSpace=wrap;html=1;absoluteArcSize=1;arcSize=14;strokeWidth=2;" parent="ohR55EIoIwS_sdCDgcCh-321" vertex="1">
          <mxGeometry x="65" y="400" width="100" height="50" as="geometry" />
        </mxCell>
        <mxCell id="ohR55EIoIwS_sdCDgcCh-336" style="edgeStyle=orthogonalEdgeStyle;rounded=0;orthogonalLoop=1;jettySize=auto;html=1;entryX=1;entryY=0.5;entryDx=0;entryDy=0;" parent="ohR55EIoIwS_sdCDgcCh-321" source="ohR55EIoIwS_sdCDgcCh-340" target="ohR55EIoIwS_sdCDgcCh-335" edge="1">
          <mxGeometry relative="1" as="geometry" />
        </mxCell>
        <mxCell id="ohR55EIoIwS_sdCDgcCh-337" value="不要" style="edgeLabel;html=1;align=center;verticalAlign=middle;resizable=0;points=[];" parent="ohR55EIoIwS_sdCDgcCh-336" vertex="1" connectable="0">
          <mxGeometry x="-0.16" y="-2" relative="1" as="geometry">
            <mxPoint as="offset" />
          </mxGeometry>
        </mxCell>
        <mxCell id="ohR55EIoIwS_sdCDgcCh-338" style="edgeStyle=orthogonalEdgeStyle;rounded=0;orthogonalLoop=1;jettySize=auto;html=1;" parent="ohR55EIoIwS_sdCDgcCh-321" source="ohR55EIoIwS_sdCDgcCh-340" edge="1">
          <mxGeometry relative="1" as="geometry">
            <mxPoint x="265" y="490" as="targetPoint" />
          </mxGeometry>
        </mxCell>
        <mxCell id="ohR55EIoIwS_sdCDgcCh-339" value="要" style="edgeLabel;html=1;align=center;verticalAlign=middle;resizable=0;points=[];" parent="ohR55EIoIwS_sdCDgcCh-338" vertex="1" connectable="0">
          <mxGeometry x="-0.2212" y="1" relative="1" as="geometry">
            <mxPoint as="offset" />
          </mxGeometry>
        </mxCell>
        <mxCell id="ohR55EIoIwS_sdCDgcCh-340" value="客人判斷&lt;div&gt;要不要參加&lt;/div&gt;" style="strokeWidth=2;html=1;shape=mxgraph.flowchart.decision;whiteSpace=wrap;" parent="ohR55EIoIwS_sdCDgcCh-321" vertex="1">
          <mxGeometry x="215" y="400" width="100" height="50" as="geometry" />
        </mxCell>
        <mxCell id="ohR55EIoIwS_sdCDgcCh-341" style="edgeStyle=orthogonalEdgeStyle;rounded=0;orthogonalLoop=1;jettySize=auto;html=1;entryX=0.5;entryY=0;entryDx=0;entryDy=0;entryPerimeter=0;" parent="ohR55EIoIwS_sdCDgcCh-321" source="ohR55EIoIwS_sdCDgcCh-333" target="ohR55EIoIwS_sdCDgcCh-340" edge="1">
          <mxGeometry relative="1" as="geometry" />
        </mxCell>
        <mxCell id="ohR55EIoIwS_sdCDgcCh-342" style="edgeStyle=orthogonalEdgeStyle;rounded=0;orthogonalLoop=1;jettySize=auto;html=1;entryX=0.5;entryY=0;entryDx=0;entryDy=0;" parent="ohR55EIoIwS_sdCDgcCh-321" source="ohR55EIoIwS_sdCDgcCh-343" target="ohR55EIoIwS_sdCDgcCh-346" edge="1">
          <mxGeometry relative="1" as="geometry" />
        </mxCell>
        <mxCell id="ohR55EIoIwS_sdCDgcCh-343" value="客人完成評論&lt;div&gt;(店家指定平台)&lt;/div&gt;" style="rounded=1;whiteSpace=wrap;html=1;absoluteArcSize=1;arcSize=14;strokeWidth=2;fillColor=#ffe6cc;strokeColor=#d79b00;" parent="ohR55EIoIwS_sdCDgcCh-321" vertex="1">
          <mxGeometry x="215" y="490" width="100" height="50" as="geometry" />
        </mxCell>
        <mxCell id="ohR55EIoIwS_sdCDgcCh-344" value="客人點菜" style="rounded=1;whiteSpace=wrap;html=1;absoluteArcSize=1;arcSize=14;strokeWidth=2;" parent="ohR55EIoIwS_sdCDgcCh-321" vertex="1">
          <mxGeometry x="65" y="490" width="100" height="50" as="geometry" />
        </mxCell>
        <mxCell id="ohR55EIoIwS_sdCDgcCh-345" style="edgeStyle=orthogonalEdgeStyle;rounded=0;orthogonalLoop=1;jettySize=auto;html=1;entryX=0.5;entryY=0;entryDx=0;entryDy=0;" parent="ohR55EIoIwS_sdCDgcCh-321" source="ohR55EIoIwS_sdCDgcCh-346" target="ohR55EIoIwS_sdCDgcCh-348" edge="1">
          <mxGeometry relative="1" as="geometry" />
        </mxCell>
        <mxCell id="ohR55EIoIwS_sdCDgcCh-346" value="客人看菜單" style="rounded=1;whiteSpace=wrap;html=1;absoluteArcSize=1;arcSize=14;strokeWidth=2;" parent="ohR55EIoIwS_sdCDgcCh-321" vertex="1">
          <mxGeometry x="215" y="580" width="100" height="50" as="geometry" />
        </mxCell>
        <mxCell id="ohR55EIoIwS_sdCDgcCh-347" style="edgeStyle=orthogonalEdgeStyle;rounded=0;orthogonalLoop=1;jettySize=auto;html=1;entryX=0.5;entryY=0;entryDx=0;entryDy=0;" parent="ohR55EIoIwS_sdCDgcCh-321" source="ohR55EIoIwS_sdCDgcCh-348" target="ohR55EIoIwS_sdCDgcCh-349" edge="1">
          <mxGeometry relative="1" as="geometry" />
        </mxCell>
        <mxCell id="ohR55EIoIwS_sdCDgcCh-348" value="客人點菜" style="rounded=1;whiteSpace=wrap;html=1;absoluteArcSize=1;arcSize=14;strokeWidth=2;" parent="ohR55EIoIwS_sdCDgcCh-321" vertex="1">
          <mxGeometry x="215" y="670" width="100" height="50" as="geometry" />
        </mxCell>
        <mxCell id="ohR55EIoIwS_sdCDgcCh-349" value="店家確認評論" style="rounded=1;whiteSpace=wrap;html=1;absoluteArcSize=1;arcSize=14;strokeWidth=2;" parent="ohR55EIoIwS_sdCDgcCh-321" vertex="1">
          <mxGeometry x="215" y="760" width="100" height="50" as="geometry" />
        </mxCell>
        <mxCell id="ohR55EIoIwS_sdCDgcCh-350" value="用餐" style="swimlane;startSize=20;html=1;" parent="ohR55EIoIwS_sdCDgcCh-292" vertex="1">
          <mxGeometry x="1440" y="20" width="320" height="920" as="geometry" />
        </mxCell>
        <mxCell id="ohR55EIoIwS_sdCDgcCh-351" style="edgeStyle=orthogonalEdgeStyle;rounded=0;orthogonalLoop=1;jettySize=auto;html=1;entryX=0.5;entryY=0;entryDx=0;entryDy=0;" parent="ohR55EIoIwS_sdCDgcCh-350" source="ohR55EIoIwS_sdCDgcCh-352" target="ohR55EIoIwS_sdCDgcCh-354" edge="1">
          <mxGeometry relative="1" as="geometry" />
        </mxCell>
        <mxCell id="ohR55EIoIwS_sdCDgcCh-352" value="上菜" style="rounded=1;whiteSpace=wrap;html=1;absoluteArcSize=1;arcSize=14;strokeWidth=2;" parent="ohR55EIoIwS_sdCDgcCh-350" vertex="1">
          <mxGeometry x="50" y="40" width="100" height="50" as="geometry" />
        </mxCell>
        <mxCell id="ohR55EIoIwS_sdCDgcCh-353" style="edgeStyle=orthogonalEdgeStyle;rounded=0;orthogonalLoop=1;jettySize=auto;html=1;entryX=0.5;entryY=0;entryDx=0;entryDy=0;" parent="ohR55EIoIwS_sdCDgcCh-350" source="ohR55EIoIwS_sdCDgcCh-354" target="ohR55EIoIwS_sdCDgcCh-356" edge="1">
          <mxGeometry relative="1" as="geometry" />
        </mxCell>
        <mxCell id="ohR55EIoIwS_sdCDgcCh-354" value="用餐" style="rounded=1;whiteSpace=wrap;html=1;absoluteArcSize=1;arcSize=14;strokeWidth=2;" parent="ohR55EIoIwS_sdCDgcCh-350" vertex="1">
          <mxGeometry x="50" y="130" width="100" height="50" as="geometry" />
        </mxCell>
        <mxCell id="ohR55EIoIwS_sdCDgcCh-355" style="edgeStyle=orthogonalEdgeStyle;rounded=0;orthogonalLoop=1;jettySize=auto;html=1;entryX=0.5;entryY=0;entryDx=0;entryDy=0;" parent="ohR55EIoIwS_sdCDgcCh-350" source="ohR55EIoIwS_sdCDgcCh-356" target="ohR55EIoIwS_sdCDgcCh-357" edge="1">
          <mxGeometry relative="1" as="geometry" />
        </mxCell>
        <mxCell id="ohR55EIoIwS_sdCDgcCh-356" value="吃完" style="rounded=1;whiteSpace=wrap;html=1;absoluteArcSize=1;arcSize=14;strokeWidth=2;" parent="ohR55EIoIwS_sdCDgcCh-350" vertex="1">
          <mxGeometry x="50" y="220" width="100" height="50" as="geometry" />
        </mxCell>
        <mxCell id="ohR55EIoIwS_sdCDgcCh-357" value="結帳" style="rounded=1;whiteSpace=wrap;html=1;absoluteArcSize=1;arcSize=14;strokeWidth=2;" parent="ohR55EIoIwS_sdCDgcCh-350" vertex="1">
          <mxGeometry x="50" y="310" width="100" height="50" as="geometry" />
        </mxCell>
        <mxCell id="ohR55EIoIwS_sdCDgcCh-358" style="edgeStyle=orthogonalEdgeStyle;rounded=0;orthogonalLoop=1;jettySize=auto;html=1;entryX=0;entryY=0.5;entryDx=0;entryDy=0;" parent="ohR55EIoIwS_sdCDgcCh-350" source="ohR55EIoIwS_sdCDgcCh-361" target="ohR55EIoIwS_sdCDgcCh-362" edge="1">
          <mxGeometry relative="1" as="geometry" />
        </mxCell>
        <mxCell id="ohR55EIoIwS_sdCDgcCh-359" value="有" style="edgeLabel;html=1;align=center;verticalAlign=middle;resizable=0;points=[];" parent="ohR55EIoIwS_sdCDgcCh-358" vertex="1" connectable="0">
          <mxGeometry x="-0.3871" relative="1" as="geometry">
            <mxPoint as="offset" />
          </mxGeometry>
        </mxCell>
        <mxCell id="ohR55EIoIwS_sdCDgcCh-360" style="edgeStyle=orthogonalEdgeStyle;rounded=0;orthogonalLoop=1;jettySize=auto;html=1;entryX=0.5;entryY=0;entryDx=0;entryDy=0;" parent="ohR55EIoIwS_sdCDgcCh-350" source="ohR55EIoIwS_sdCDgcCh-361" target="ohR55EIoIwS_sdCDgcCh-378" edge="1">
          <mxGeometry relative="1" as="geometry" />
        </mxCell>
        <mxCell id="ohR55EIoIwS_sdCDgcCh-361" value="店家有無&lt;div&gt;評論折扣活動&lt;/div&gt;" style="strokeWidth=2;html=1;shape=mxgraph.flowchart.decision;whiteSpace=wrap;" parent="ohR55EIoIwS_sdCDgcCh-350" vertex="1">
          <mxGeometry x="50" y="399.5" width="100" height="50" as="geometry" />
        </mxCell>
        <mxCell id="ohR55EIoIwS_sdCDgcCh-362" value="店家說明/提供&lt;div&gt;活動資訊&lt;/div&gt;" style="rounded=1;whiteSpace=wrap;html=1;absoluteArcSize=1;arcSize=14;strokeWidth=2;" parent="ohR55EIoIwS_sdCDgcCh-350" vertex="1">
          <mxGeometry x="190" y="399.5" width="100" height="50" as="geometry" />
        </mxCell>
        <mxCell id="ohR55EIoIwS_sdCDgcCh-363" style="edgeStyle=orthogonalEdgeStyle;rounded=0;orthogonalLoop=1;jettySize=auto;html=1;entryX=0.5;entryY=0;entryDx=0;entryDy=0;" parent="ohR55EIoIwS_sdCDgcCh-350" source="ohR55EIoIwS_sdCDgcCh-367" target="ohR55EIoIwS_sdCDgcCh-369" edge="1">
          <mxGeometry relative="1" as="geometry" />
        </mxCell>
        <mxCell id="ohR55EIoIwS_sdCDgcCh-364" value="要" style="edgeLabel;html=1;align=center;verticalAlign=middle;resizable=0;points=[];" parent="ohR55EIoIwS_sdCDgcCh-363" vertex="1" connectable="0">
          <mxGeometry x="-0.225" y="-1" relative="1" as="geometry">
            <mxPoint as="offset" />
          </mxGeometry>
        </mxCell>
        <mxCell id="ohR55EIoIwS_sdCDgcCh-365" style="edgeStyle=orthogonalEdgeStyle;rounded=0;orthogonalLoop=1;jettySize=auto;html=1;entryX=1;entryY=0.5;entryDx=0;entryDy=0;" parent="ohR55EIoIwS_sdCDgcCh-350" source="ohR55EIoIwS_sdCDgcCh-367" target="ohR55EIoIwS_sdCDgcCh-378" edge="1">
          <mxGeometry relative="1" as="geometry" />
        </mxCell>
        <mxCell id="ohR55EIoIwS_sdCDgcCh-366" value="不要" style="edgeLabel;html=1;align=center;verticalAlign=middle;resizable=0;points=[];" parent="ohR55EIoIwS_sdCDgcCh-365" vertex="1" connectable="0">
          <mxGeometry x="-0.106" relative="1" as="geometry">
            <mxPoint as="offset" />
          </mxGeometry>
        </mxCell>
        <mxCell id="ohR55EIoIwS_sdCDgcCh-367" value="客人判斷&lt;div&gt;要不要參加&lt;/div&gt;" style="strokeWidth=2;html=1;shape=mxgraph.flowchart.decision;whiteSpace=wrap;" parent="ohR55EIoIwS_sdCDgcCh-350" vertex="1">
          <mxGeometry x="190" y="489.5" width="100" height="50" as="geometry" />
        </mxCell>
        <mxCell id="ohR55EIoIwS_sdCDgcCh-368" style="edgeStyle=orthogonalEdgeStyle;rounded=0;orthogonalLoop=1;jettySize=auto;html=1;entryX=0.5;entryY=0;entryDx=0;entryDy=0;" parent="ohR55EIoIwS_sdCDgcCh-350" source="ohR55EIoIwS_sdCDgcCh-369" target="ohR55EIoIwS_sdCDgcCh-373" edge="1">
          <mxGeometry relative="1" as="geometry" />
        </mxCell>
        <mxCell id="ohR55EIoIwS_sdCDgcCh-369" value="客人完成評論&lt;div&gt;(店家指定平台)&lt;/div&gt;" style="rounded=1;whiteSpace=wrap;html=1;absoluteArcSize=1;arcSize=14;strokeWidth=2;fillColor=#ffe6cc;strokeColor=#d79b00;" parent="ohR55EIoIwS_sdCDgcCh-350" vertex="1">
          <mxGeometry x="190" y="579.5" width="100" height="50" as="geometry" />
        </mxCell>
        <mxCell id="ohR55EIoIwS_sdCDgcCh-370" style="edgeStyle=orthogonalEdgeStyle;rounded=0;orthogonalLoop=1;jettySize=auto;html=1;entryX=0.5;entryY=0;entryDx=0;entryDy=0;entryPerimeter=0;" parent="ohR55EIoIwS_sdCDgcCh-350" source="ohR55EIoIwS_sdCDgcCh-362" target="ohR55EIoIwS_sdCDgcCh-367" edge="1">
          <mxGeometry relative="1" as="geometry" />
        </mxCell>
        <mxCell id="ohR55EIoIwS_sdCDgcCh-371" style="edgeStyle=orthogonalEdgeStyle;rounded=0;orthogonalLoop=1;jettySize=auto;html=1;entryX=0.5;entryY=0;entryDx=0;entryDy=0;entryPerimeter=0;" parent="ohR55EIoIwS_sdCDgcCh-350" source="ohR55EIoIwS_sdCDgcCh-357" target="ohR55EIoIwS_sdCDgcCh-361" edge="1">
          <mxGeometry relative="1" as="geometry" />
        </mxCell>
        <mxCell id="ohR55EIoIwS_sdCDgcCh-372" style="edgeStyle=orthogonalEdgeStyle;rounded=0;orthogonalLoop=1;jettySize=auto;html=1;entryX=0.5;entryY=0;entryDx=0;entryDy=0;" parent="ohR55EIoIwS_sdCDgcCh-350" source="ohR55EIoIwS_sdCDgcCh-373" target="ohR55EIoIwS_sdCDgcCh-375" edge="1">
          <mxGeometry relative="1" as="geometry" />
        </mxCell>
        <mxCell id="ohR55EIoIwS_sdCDgcCh-373" value="店家確認評論" style="rounded=1;whiteSpace=wrap;html=1;absoluteArcSize=1;arcSize=14;strokeWidth=2;" parent="ohR55EIoIwS_sdCDgcCh-350" vertex="1">
          <mxGeometry x="190" y="670" width="100" height="50" as="geometry" />
        </mxCell>
        <mxCell id="ohR55EIoIwS_sdCDgcCh-374" style="edgeStyle=orthogonalEdgeStyle;rounded=0;orthogonalLoop=1;jettySize=auto;html=1;entryX=0.5;entryY=0;entryDx=0;entryDy=0;" parent="ohR55EIoIwS_sdCDgcCh-350" source="ohR55EIoIwS_sdCDgcCh-375" target="ohR55EIoIwS_sdCDgcCh-376" edge="1">
          <mxGeometry relative="1" as="geometry" />
        </mxCell>
        <mxCell id="ohR55EIoIwS_sdCDgcCh-375" value="確認金額" style="rounded=1;whiteSpace=wrap;html=1;absoluteArcSize=1;arcSize=14;strokeWidth=2;" parent="ohR55EIoIwS_sdCDgcCh-350" vertex="1">
          <mxGeometry x="190" y="760" width="100" height="50" as="geometry" />
        </mxCell>
        <mxCell id="ohR55EIoIwS_sdCDgcCh-376" value="刷卡/付現/感應" style="rounded=1;whiteSpace=wrap;html=1;absoluteArcSize=1;arcSize=14;strokeWidth=2;" parent="ohR55EIoIwS_sdCDgcCh-350" vertex="1">
          <mxGeometry x="190" y="850" width="100" height="50" as="geometry" />
        </mxCell>
        <mxCell id="ohR55EIoIwS_sdCDgcCh-377" style="edgeStyle=orthogonalEdgeStyle;rounded=0;orthogonalLoop=1;jettySize=auto;html=1;entryX=0.5;entryY=0;entryDx=0;entryDy=0;" parent="ohR55EIoIwS_sdCDgcCh-350" source="ohR55EIoIwS_sdCDgcCh-378" target="ohR55EIoIwS_sdCDgcCh-379" edge="1">
          <mxGeometry relative="1" as="geometry" />
        </mxCell>
        <mxCell id="ohR55EIoIwS_sdCDgcCh-378" value="確認金額" style="rounded=1;whiteSpace=wrap;html=1;absoluteArcSize=1;arcSize=14;strokeWidth=2;" parent="ohR55EIoIwS_sdCDgcCh-350" vertex="1">
          <mxGeometry x="50" y="489.5" width="100" height="50" as="geometry" />
        </mxCell>
        <mxCell id="ohR55EIoIwS_sdCDgcCh-379" value="刷卡/付現/感應" style="rounded=1;whiteSpace=wrap;html=1;absoluteArcSize=1;arcSize=14;strokeWidth=2;" parent="ohR55EIoIwS_sdCDgcCh-350" vertex="1">
          <mxGeometry x="50" y="579.5" width="100" height="50" as="geometry" />
        </mxCell>
        <mxCell id="ohR55EIoIwS_sdCDgcCh-380" value="離開餐廳" style="swimlane;startSize=20;html=1;" parent="ohR55EIoIwS_sdCDgcCh-292" vertex="1">
          <mxGeometry x="1760" y="20" width="320" height="920" as="geometry" />
        </mxCell>
        <mxCell id="ohR55EIoIwS_sdCDgcCh-381" style="edgeStyle=orthogonalEdgeStyle;rounded=0;orthogonalLoop=1;jettySize=auto;html=1;entryX=0.5;entryY=0;entryDx=0;entryDy=0;" parent="ohR55EIoIwS_sdCDgcCh-380" source="ohR55EIoIwS_sdCDgcCh-382" target="ohR55EIoIwS_sdCDgcCh-384" edge="1">
          <mxGeometry relative="1" as="geometry" />
        </mxCell>
        <mxCell id="ohR55EIoIwS_sdCDgcCh-382" value="走出餐廳門口" style="rounded=1;whiteSpace=wrap;html=1;absoluteArcSize=1;arcSize=14;strokeWidth=2;" parent="ohR55EIoIwS_sdCDgcCh-380" vertex="1">
          <mxGeometry x="50" y="40" width="100" height="50" as="geometry" />
        </mxCell>
        <mxCell id="ohR55EIoIwS_sdCDgcCh-383" style="edgeStyle=orthogonalEdgeStyle;rounded=0;orthogonalLoop=1;jettySize=auto;html=1;" parent="ohR55EIoIwS_sdCDgcCh-380" source="ohR55EIoIwS_sdCDgcCh-384" target="ohR55EIoIwS_sdCDgcCh-385" edge="1">
          <mxGeometry relative="1" as="geometry" />
        </mxCell>
        <mxCell id="ohR55EIoIwS_sdCDgcCh-384" value="前往下個地點" style="rounded=1;whiteSpace=wrap;html=1;absoluteArcSize=1;arcSize=14;strokeWidth=2;" parent="ohR55EIoIwS_sdCDgcCh-380" vertex="1">
          <mxGeometry x="50" y="130" width="100" height="50" as="geometry" />
        </mxCell>
        <mxCell id="ohR55EIoIwS_sdCDgcCh-385" value="回想用餐經過" style="rounded=1;whiteSpace=wrap;html=1;absoluteArcSize=1;arcSize=14;strokeWidth=2;" parent="ohR55EIoIwS_sdCDgcCh-380" vertex="1">
          <mxGeometry x="50" y="220" width="100" height="50" as="geometry" />
        </mxCell>
        <mxCell id="ohR55EIoIwS_sdCDgcCh-386" style="edgeStyle=orthogonalEdgeStyle;rounded=0;orthogonalLoop=1;jettySize=auto;html=1;" parent="ohR55EIoIwS_sdCDgcCh-380" source="ohR55EIoIwS_sdCDgcCh-390" edge="1">
          <mxGeometry relative="1" as="geometry">
            <mxPoint x="100" y="400" as="targetPoint" />
          </mxGeometry>
        </mxCell>
        <mxCell id="ohR55EIoIwS_sdCDgcCh-387" value="不要" style="edgeLabel;html=1;align=center;verticalAlign=middle;resizable=0;points=[];" parent="ohR55EIoIwS_sdCDgcCh-386" vertex="1" connectable="0">
          <mxGeometry x="-0.1611" relative="1" as="geometry">
            <mxPoint as="offset" />
          </mxGeometry>
        </mxCell>
        <mxCell id="ohR55EIoIwS_sdCDgcCh-388" style="edgeStyle=orthogonalEdgeStyle;rounded=0;orthogonalLoop=1;jettySize=auto;html=1;entryX=0;entryY=0.5;entryDx=0;entryDy=0;" parent="ohR55EIoIwS_sdCDgcCh-380" source="ohR55EIoIwS_sdCDgcCh-390" target="ohR55EIoIwS_sdCDgcCh-393" edge="1">
          <mxGeometry relative="1" as="geometry" />
        </mxCell>
        <mxCell id="ohR55EIoIwS_sdCDgcCh-389" value="要" style="edgeLabel;html=1;align=center;verticalAlign=middle;resizable=0;points=[];" parent="ohR55EIoIwS_sdCDgcCh-388" vertex="1" connectable="0">
          <mxGeometry x="-0.3809" relative="1" as="geometry">
            <mxPoint as="offset" />
          </mxGeometry>
        </mxCell>
        <mxCell id="ohR55EIoIwS_sdCDgcCh-390" value="要不要分享" style="strokeWidth=2;html=1;shape=mxgraph.flowchart.decision;whiteSpace=wrap;" parent="ohR55EIoIwS_sdCDgcCh-380" vertex="1">
          <mxGeometry x="50" y="310" width="100" height="50" as="geometry" />
        </mxCell>
        <mxCell id="ohR55EIoIwS_sdCDgcCh-391" style="edgeStyle=orthogonalEdgeStyle;rounded=0;orthogonalLoop=1;jettySize=auto;html=1;entryX=0.5;entryY=0;entryDx=0;entryDy=0;entryPerimeter=0;" parent="ohR55EIoIwS_sdCDgcCh-380" source="ohR55EIoIwS_sdCDgcCh-385" target="ohR55EIoIwS_sdCDgcCh-390" edge="1">
          <mxGeometry relative="1" as="geometry" />
        </mxCell>
        <mxCell id="ohR55EIoIwS_sdCDgcCh-392" value="做下一件事" style="rounded=1;whiteSpace=wrap;html=1;absoluteArcSize=1;arcSize=14;strokeWidth=2;" parent="ohR55EIoIwS_sdCDgcCh-380" vertex="1">
          <mxGeometry x="50" y="400" width="100" height="50" as="geometry" />
        </mxCell>
        <mxCell id="ohR55EIoIwS_sdCDgcCh-393" value="找習慣的平台分享" style="rounded=1;whiteSpace=wrap;html=1;absoluteArcSize=1;arcSize=14;strokeWidth=2;fillColor=#ffe6cc;strokeColor=#d79b00;" parent="ohR55EIoIwS_sdCDgcCh-380" vertex="1">
          <mxGeometry x="190" y="310" width="100" height="50" as="geometry" />
        </mxCell>
        <mxCell id="ohR55EIoIwS_sdCDgcCh-394" style="edgeStyle=orthogonalEdgeStyle;rounded=0;orthogonalLoop=1;jettySize=auto;html=1;exitX=1;exitY=0.5;exitDx=0;exitDy=0;exitPerimeter=0;entryX=0;entryY=0.5;entryDx=0;entryDy=0;" parent="ohR55EIoIwS_sdCDgcCh-292" source="ohR55EIoIwS_sdCDgcCh-294" target="ohR55EIoIwS_sdCDgcCh-297" edge="1">
          <mxGeometry relative="1" as="geometry" />
        </mxCell>
        <mxCell id="ohR55EIoIwS_sdCDgcCh-407" style="edgeStyle=orthogonalEdgeStyle;rounded=0;orthogonalLoop=1;jettySize=auto;html=1;entryX=0;entryY=0.5;entryDx=0;entryDy=0;" parent="ohR55EIoIwS_sdCDgcCh-292" source="ohR55EIoIwS_sdCDgcCh-320" target="ohR55EIoIwS_sdCDgcCh-323" edge="1">
          <mxGeometry relative="1" as="geometry">
            <Array as="points">
              <mxPoint x="1100" y="175" />
              <mxPoint x="1100" y="85" />
            </Array>
          </mxGeometry>
        </mxCell>
        <mxCell id="ohR55EIoIwS_sdCDgcCh-408" style="edgeStyle=orthogonalEdgeStyle;rounded=0;orthogonalLoop=1;jettySize=auto;html=1;entryX=0;entryY=0.5;entryDx=0;entryDy=0;exitX=0.5;exitY=1;exitDx=0;exitDy=0;" parent="ohR55EIoIwS_sdCDgcCh-292" source="ohR55EIoIwS_sdCDgcCh-344" target="ohR55EIoIwS_sdCDgcCh-352" edge="1">
          <mxGeometry relative="1" as="geometry">
            <Array as="points">
              <mxPoint x="1195" y="850" />
              <mxPoint x="1460" y="850" />
              <mxPoint x="1460" y="85" />
            </Array>
          </mxGeometry>
        </mxCell>
        <mxCell id="ohR55EIoIwS_sdCDgcCh-409" style="edgeStyle=orthogonalEdgeStyle;rounded=0;orthogonalLoop=1;jettySize=auto;html=1;entryX=0;entryY=0.5;entryDx=0;entryDy=0;exitX=0.5;exitY=1;exitDx=0;exitDy=0;" parent="ohR55EIoIwS_sdCDgcCh-292" source="ohR55EIoIwS_sdCDgcCh-349" target="ohR55EIoIwS_sdCDgcCh-352" edge="1">
          <mxGeometry relative="1" as="geometry">
            <Array as="points">
              <mxPoint x="1345" y="850" />
              <mxPoint x="1460" y="850" />
              <mxPoint x="1460" y="85" />
            </Array>
          </mxGeometry>
        </mxCell>
        <mxCell id="ohR55EIoIwS_sdCDgcCh-410" style="edgeStyle=orthogonalEdgeStyle;rounded=0;orthogonalLoop=1;jettySize=auto;html=1;entryX=0;entryY=0.5;entryDx=0;entryDy=0;exitX=0.5;exitY=1;exitDx=0;exitDy=0;" parent="ohR55EIoIwS_sdCDgcCh-292" source="ohR55EIoIwS_sdCDgcCh-379" target="ohR55EIoIwS_sdCDgcCh-382" edge="1">
          <mxGeometry relative="1" as="geometry">
            <Array as="points">
              <mxPoint x="1540" y="930" />
              <mxPoint x="1790" y="930" />
              <mxPoint x="1790" y="85" />
            </Array>
          </mxGeometry>
        </mxCell>
        <mxCell id="ohR55EIoIwS_sdCDgcCh-411" style="edgeStyle=orthogonalEdgeStyle;rounded=0;orthogonalLoop=1;jettySize=auto;html=1;entryX=0;entryY=0.5;entryDx=0;entryDy=0;exitX=0.5;exitY=1;exitDx=0;exitDy=0;" parent="ohR55EIoIwS_sdCDgcCh-292" source="ohR55EIoIwS_sdCDgcCh-376" target="ohR55EIoIwS_sdCDgcCh-382" edge="1">
          <mxGeometry relative="1" as="geometry">
            <Array as="points">
              <mxPoint x="1680" y="930" />
              <mxPoint x="1790" y="930" />
              <mxPoint x="1790" y="85" />
            </Array>
          </mxGeometry>
        </mxCell>
        <mxCell id="ohR55EIoIwS_sdCDgcCh-663" style="edgeStyle=orthogonalEdgeStyle;rounded=0;orthogonalLoop=1;jettySize=auto;html=1;entryX=0;entryY=0.5;entryDx=0;entryDy=0;" parent="ohR55EIoIwS_sdCDgcCh-292" source="ohR55EIoIwS_sdCDgcCh-657" target="ohR55EIoIwS_sdCDgcCh-661" edge="1">
          <mxGeometry relative="1" as="geometry">
            <Array as="points">
              <mxPoint x="410" y="265" />
              <mxPoint x="410" y="85" />
            </Array>
          </mxGeometry>
        </mxCell>
        <mxCell id="ohR55EIoIwS_sdCDgcCh-664" value="有" style="edgeLabel;html=1;align=center;verticalAlign=middle;resizable=0;points=[];" parent="ohR55EIoIwS_sdCDgcCh-663" vertex="1" connectable="0">
          <mxGeometry x="-0.8359" y="1" relative="1" as="geometry">
            <mxPoint as="offset" />
          </mxGeometry>
        </mxCell>
        <mxCell id="ohR55EIoIwS_sdCDgcCh-665" style="edgeStyle=orthogonalEdgeStyle;rounded=0;orthogonalLoop=1;jettySize=auto;html=1;exitX=0.5;exitY=1;exitDx=0;exitDy=0;exitPerimeter=0;entryX=0.5;entryY=0;entryDx=0;entryDy=0;" parent="ohR55EIoIwS_sdCDgcCh-292" source="ohR55EIoIwS_sdCDgcCh-657" target="ohR55EIoIwS_sdCDgcCh-662" edge="1">
          <mxGeometry relative="1" as="geometry">
            <Array as="points">
              <mxPoint x="300" y="310" />
              <mxPoint x="410" y="310" />
              <mxPoint x="410" y="50" />
              <mxPoint x="630" y="50" />
            </Array>
          </mxGeometry>
        </mxCell>
        <mxCell id="ohR55EIoIwS_sdCDgcCh-666" value="沒有" style="edgeLabel;html=1;align=center;verticalAlign=middle;resizable=0;points=[];" parent="ohR55EIoIwS_sdCDgcCh-665" vertex="1" connectable="0">
          <mxGeometry x="-0.8414" y="1" relative="1" as="geometry">
            <mxPoint as="offset" />
          </mxGeometry>
        </mxCell>
        <mxCell id="ohR55EIoIwS_sdCDgcCh-674" style="edgeStyle=orthogonalEdgeStyle;rounded=0;orthogonalLoop=1;jettySize=auto;html=1;entryX=0;entryY=0.5;entryDx=0;entryDy=0;exitX=0;exitY=0.5;exitDx=0;exitDy=0;exitPerimeter=0;fillColor=#f8cecc;strokeColor=#b85450;" parent="ohR55EIoIwS_sdCDgcCh-292" source="ohR55EIoIwS_sdCDgcCh-670" target="ohR55EIoIwS_sdCDgcCh-297" edge="1">
          <mxGeometry relative="1" as="geometry">
            <Array as="points">
              <mxPoint x="230" y="445" />
              <mxPoint x="230" y="85" />
            </Array>
          </mxGeometry>
        </mxCell>
        <mxCell id="ohR55EIoIwS_sdCDgcCh-675" value="&lt;font style=&quot;color: rgb(0, 0, 0);&quot;&gt;要&lt;/font&gt;" style="edgeLabel;html=1;align=center;verticalAlign=middle;resizable=0;points=[];fontColor=#FF0000;" parent="ohR55EIoIwS_sdCDgcCh-674" vertex="1" connectable="0">
          <mxGeometry x="-0.7869" relative="1" as="geometry">
            <mxPoint as="offset" />
          </mxGeometry>
        </mxCell>
        <mxCell id="4ajuV6uHc0gaihr2h6cn-3" style="edgeStyle=orthogonalEdgeStyle;rounded=0;orthogonalLoop=1;jettySize=auto;html=1;entryX=0;entryY=0.5;entryDx=0;entryDy=0;" edge="1" parent="ohR55EIoIwS_sdCDgcCh-292" source="ohR55EIoIwS_sdCDgcCh-687" target="ohR55EIoIwS_sdCDgcCh-319">
          <mxGeometry relative="1" as="geometry">
            <Array as="points">
              <mxPoint x="480" y="750" />
              <mxPoint x="910" y="750" />
              <mxPoint x="910" y="85" />
            </Array>
          </mxGeometry>
        </mxCell>
        <mxCell id="4ajuV6uHc0gaihr2h6cn-5" style="edgeStyle=orthogonalEdgeStyle;rounded=0;orthogonalLoop=1;jettySize=auto;html=1;entryX=0;entryY=0.5;entryDx=0;entryDy=0;exitX=1;exitY=0.5;exitDx=0;exitDy=0;exitPerimeter=0;" edge="1" parent="ohR55EIoIwS_sdCDgcCh-292" source="ohR55EIoIwS_sdCDgcCh-653" target="ohR55EIoIwS_sdCDgcCh-325">
          <mxGeometry relative="1" as="geometry">
            <Array as="points">
              <mxPoint x="380" y="175" />
              <mxPoint x="380" y="50" />
              <mxPoint x="1100" y="50" />
              <mxPoint x="1100" y="175" />
            </Array>
          </mxGeometry>
        </mxCell>
        <mxCell id="4ajuV6uHc0gaihr2h6cn-7" value="不用" style="edgeLabel;html=1;align=center;verticalAlign=middle;resizable=0;points=[];" vertex="1" connectable="0" parent="4ajuV6uHc0gaihr2h6cn-5">
          <mxGeometry x="-0.833" relative="1" as="geometry">
            <mxPoint as="offset" />
          </mxGeometry>
        </mxCell>
        <mxCell id="4ajuV6uHc0gaihr2h6cn-17" style="edgeStyle=orthogonalEdgeStyle;rounded=0;orthogonalLoop=1;jettySize=auto;html=1;entryX=0;entryY=0.5;entryDx=0;entryDy=0;exitX=0;exitY=0.5;exitDx=0;exitDy=0;exitPerimeter=0;" edge="1" parent="ohR55EIoIwS_sdCDgcCh-292" source="4ajuV6uHc0gaihr2h6cn-8" target="ohR55EIoIwS_sdCDgcCh-297">
          <mxGeometry relative="1" as="geometry">
            <Array as="points">
              <mxPoint x="580" y="600" />
              <mxPoint x="230" y="600" />
              <mxPoint x="230" y="85" />
            </Array>
          </mxGeometry>
        </mxCell>
        <mxCell id="4ajuV6uHc0gaihr2h6cn-18" value="要" style="edgeLabel;html=1;align=center;verticalAlign=middle;resizable=0;points=[];" vertex="1" connectable="0" parent="4ajuV6uHc0gaihr2h6cn-17">
          <mxGeometry x="-0.8056" y="1" relative="1" as="geometry">
            <mxPoint as="offset" />
          </mxGeometry>
        </mxCell>
        <mxCell id="4ajuV6uHc0gaihr2h6cn-22" style="edgeStyle=orthogonalEdgeStyle;rounded=0;orthogonalLoop=1;jettySize=auto;html=1;entryX=0;entryY=0.5;entryDx=0;entryDy=0;exitX=0;exitY=0.5;exitDx=0;exitDy=0;exitPerimeter=0;" edge="1" parent="ohR55EIoIwS_sdCDgcCh-292" source="4ajuV6uHc0gaihr2h6cn-20" target="ohR55EIoIwS_sdCDgcCh-297">
          <mxGeometry relative="1" as="geometry">
            <Array as="points">
              <mxPoint x="730" y="620" />
              <mxPoint x="230" y="620" />
              <mxPoint x="230" y="85" />
            </Array>
          </mxGeometry>
        </mxCell>
        <mxCell id="4ajuV6uHc0gaihr2h6cn-23" value="要" style="edgeLabel;html=1;align=center;verticalAlign=middle;resizable=0;points=[];" vertex="1" connectable="0" parent="4ajuV6uHc0gaihr2h6cn-22">
          <mxGeometry x="-0.7686" y="2" relative="1" as="geometry">
            <mxPoint as="offset" />
          </mxGeometry>
        </mxCell>
        <mxCell id="4ajuV6uHc0gaihr2h6cn-31" style="edgeStyle=orthogonalEdgeStyle;rounded=0;orthogonalLoop=1;jettySize=auto;html=1;entryX=0;entryY=0.5;entryDx=0;entryDy=0;" edge="1" parent="ohR55EIoIwS_sdCDgcCh-292" source="4ajuV6uHc0gaihr2h6cn-24" target="ohR55EIoIwS_sdCDgcCh-319">
          <mxGeometry relative="1" as="geometry">
            <Array as="points">
              <mxPoint x="630" y="750" />
              <mxPoint x="910" y="750" />
              <mxPoint x="910" y="85" />
            </Array>
          </mxGeometry>
        </mxCell>
        <mxCell id="4ajuV6uHc0gaihr2h6cn-32" style="edgeStyle=orthogonalEdgeStyle;rounded=0;orthogonalLoop=1;jettySize=auto;html=1;entryX=0;entryY=0.5;entryDx=0;entryDy=0;" edge="1" parent="ohR55EIoIwS_sdCDgcCh-292" source="4ajuV6uHc0gaihr2h6cn-25" target="ohR55EIoIwS_sdCDgcCh-319">
          <mxGeometry relative="1" as="geometry">
            <Array as="points">
              <mxPoint x="910" y="675" />
              <mxPoint x="910" y="85" />
            </Array>
          </mxGeometry>
        </mxCell>
      </root>
    </mxGraphModel>
  </diagram>
</mxfile>
